M48
;Layer_Color=9474304
;FILE_FORMAT=2:5
INCH,LZ
;TYPE=PLATED
T1F00S00C0.01300
T2F00S00C0.03150
%
T01
X0003937Y0003937
Y0015748
X0015748
Y0003937
X0027559Y0015748
X0035827Y0016634
X0041339Y0015748
Y0027559
X0035433
Y003937
X0041339
X0013386Y0038976
Y0029528
X0003937Y0027559
Y003937
Y0051181
X0015748
X0027559
X0035827Y0050295
X0041339Y0051181
X0015748Y0062992
X0003937
T02
X0009843Y0023425
Y0043504
M30
