G04 Layer_Color=65535*
%FSLAX25Y25*%
%MOIN*%
G70*
G01*
G75*
%ADD39C,0.01000*%
%ADD40C,0.00600*%
%ADD56C,0.00984*%
%ADD57C,0.00787*%
%ADD58C,0.00700*%
D39*
X199213Y87008D02*
Y86008D01*
X198213D01*
Y87008D01*
X199213D01*
D40*
X267715Y112795D02*
X267049Y113462D01*
Y114795D01*
X267715Y115461D01*
X268381D01*
X269048Y114795D01*
Y114128D01*
Y114795D01*
X269714Y115461D01*
X270381D01*
X271047Y114795D01*
Y113462D01*
X270381Y112795D01*
X263961Y114795D02*
X259962D01*
X261961Y112795D01*
Y115461D01*
X263961Y98532D02*
Y95866D01*
X261295Y98532D01*
X260628D01*
X259962Y97865D01*
Y96533D01*
X260628Y95866D01*
X271047Y97441D02*
Y98774D01*
Y98107D01*
X267049D01*
X267715Y97441D01*
X126682Y164961D02*
X124016D01*
X126682Y167626D01*
Y168293D01*
X126015Y168959D01*
X124682D01*
X124016Y168293D01*
X125591Y157874D02*
X126923D01*
X126257D01*
Y161873D01*
X125591Y161206D01*
D56*
X263090Y58268D02*
G03*
X263090Y58268I-492J0D01*
G01*
X154035Y26476D02*
G03*
X154035Y26476I-492J0D01*
G01*
X154035Y1169D02*
G03*
X154035Y1169I-492J0D01*
G01*
X102756Y156496D02*
G03*
X102756Y156496I-492J0D01*
G01*
X71260D02*
G03*
X71260Y156496I-492J0D01*
G01*
X39764D02*
G03*
X39764Y156496I-492J0D01*
G01*
X8268D02*
G03*
X8268Y156496I-492J0D01*
G01*
X8268Y92520D02*
G03*
X8268Y92520I-492J0D01*
G01*
X39764Y92520D02*
G03*
X39764Y92520I-492J0D01*
G01*
X102756Y92520D02*
G03*
X102756Y92520I-492J0D01*
G01*
X8268Y28630D02*
G03*
X8268Y28630I-492J0D01*
G01*
X71260Y28630D02*
G03*
X71260Y28630I-492J0D01*
G01*
X102756Y28630D02*
G03*
X102756Y28630I-492J0D01*
G01*
X204232Y1169D02*
G03*
X204232Y1169I-492J0D01*
G01*
X204232Y26673D02*
G03*
X204232Y26673I-492J0D01*
G01*
X244587Y163307D02*
G03*
X244587Y163307I-492J0D01*
G01*
X71260Y92520D02*
G03*
X71260Y92520I-492J0D01*
G01*
X39764Y28630D02*
G03*
X39764Y28630I-492J0D01*
G01*
D57*
X42323Y118110D02*
G03*
X42323Y118110I-7874J0D01*
G01*
Y55118D02*
G03*
X42323Y55118I-7874J0D01*
G01*
X273494Y86614D02*
G03*
X273494Y86614I-7874J0D01*
G01*
X261811Y54134D02*
Y56102D01*
X253937Y54134D02*
Y56102D01*
X261811Y56102D01*
X253937Y54134D02*
X261811Y54134D01*
X236698Y66142D02*
X243391D01*
X236698D02*
Y71653D01*
X250084D01*
Y66142D02*
Y71653D01*
X243391Y66142D02*
X250084D01*
X243579Y100059D02*
X250272D01*
Y94547D02*
Y100059D01*
X236886Y94547D02*
X250272D01*
X236886D02*
Y100059D01*
X243579D01*
X236886Y87658D02*
X243579D01*
X236886D02*
Y93169D01*
X250272D01*
Y87658D02*
Y93169D01*
X243579Y87658D02*
X250272D01*
X236856Y108327D02*
X243548D01*
X236856D02*
Y113839D01*
X250241D01*
Y108327D02*
Y113839D01*
X243548Y108327D02*
X250241D01*
X243548Y106949D02*
X250241D01*
Y101437D02*
Y106949D01*
X236856Y101437D02*
X250241D01*
X236856D02*
Y106949D01*
X243548D01*
X272524Y100118D02*
Y111299D01*
X258547Y100118D02*
Y111299D01*
Y100118D02*
X272524Y100118D01*
X258547Y111299D02*
X272524D01*
X253714Y74429D02*
Y85020D01*
X232533D02*
X253714D01*
X232533Y74429D02*
Y85020D01*
Y74429D02*
X253714D01*
X181004Y41917D02*
X181004Y31988D01*
X174273Y43534D02*
X181004Y41917D01*
X137894Y41917D02*
X144625Y43534D01*
X174114Y31988D02*
X181004Y31988D01*
X137894Y31988D02*
X144783D01*
X137894D02*
Y41917D01*
X181004Y6681D02*
X181004Y16610D01*
X174273Y18227D02*
X181004Y16610D01*
X137894D02*
X144625Y18227D01*
X174114Y6681D02*
X181004D01*
X137894D02*
X144783D01*
X137894Y16610D02*
X137894Y6681D01*
X245443Y121260D02*
X252135Y121260D01*
Y126772D01*
X238750D02*
X252135D01*
X238750D02*
X238750Y121260D01*
X245443D01*
X202120Y68928D02*
X213931D01*
X202120Y76802D02*
X213931D01*
X215643Y54449D02*
Y66260D01*
X207769Y54449D02*
Y66260D01*
X237205Y126772D02*
X237205Y121555D01*
X201433Y84030D02*
X208126D01*
X201433Y78518D02*
Y84030D01*
Y78518D02*
X214819D01*
Y84030D01*
X208126D02*
X214819D01*
X193399Y66591D02*
X200092D01*
X193399Y61079D02*
Y66591D01*
Y61079D02*
X206785D01*
Y66591D01*
X200092D02*
X206785D01*
X275197Y150709D02*
Y157402D01*
X269685Y150709D02*
X275197D01*
X269685D02*
Y164094D01*
X275197D01*
X275197Y157402D01*
X268307Y150610D02*
X268307Y157303D01*
X262795Y150610D02*
X268307Y150610D01*
X262795Y150610D02*
Y163996D01*
X268307Y163996D01*
X268307Y157303D01*
X269291Y130236D02*
X269291Y136929D01*
X263779Y130236D02*
X269291D01*
X263779D02*
X263779Y143622D01*
X269291D01*
Y136929D02*
Y143622D01*
X241929Y131024D02*
Y142835D01*
X234055Y131024D02*
X234055Y142835D01*
X272590Y48573D02*
Y55266D01*
X267079Y48573D02*
X272590D01*
X267079D02*
Y61959D01*
X272590Y61959D01*
X272590Y55266D01*
X185809Y164802D02*
X189746Y168739D01*
X185809Y156928D02*
X189746Y152991D01*
X201557Y154959D02*
Y166770D01*
X107776Y129035D02*
X117705D01*
X119322Y135767D01*
X117705Y172146D02*
X119322Y165415D01*
X107776Y129035D02*
Y135925D01*
Y165256D02*
Y172146D01*
X117705D01*
X76279Y129035D02*
X86209Y129035D01*
X87826Y135767D01*
X86209Y172146D02*
X87826Y165415D01*
X76279Y129035D02*
Y135925D01*
Y165256D02*
Y172146D01*
X86209Y172146D01*
X44783Y129035D02*
X54712D01*
X56330Y135767D01*
X54712Y172146D02*
X56330Y165415D01*
X44783Y129035D02*
Y135925D01*
Y165256D02*
Y172146D01*
X54712D01*
X13287Y129035D02*
X23216Y129035D01*
X24834Y135767D01*
X23216Y172146D02*
X24834Y165415D01*
X13287Y129035D02*
Y135925D01*
Y165256D02*
Y172146D01*
X23216Y172146D01*
X13287Y65059D02*
X23216D01*
X24834Y71790D01*
X23216Y108169D02*
X24834Y101438D01*
X13287Y71949D02*
X13287Y65059D01*
X13287Y101280D02*
X13287Y108169D01*
X23216D01*
X44783Y65059D02*
X54712D01*
X56330Y71790D01*
X54712Y108169D02*
X56330Y101438D01*
X44783Y65059D02*
Y71949D01*
Y101280D02*
Y108169D01*
X54712D01*
X107776Y65059D02*
X117705D01*
X119322Y71790D01*
X117705Y108169D02*
X119322Y101438D01*
X107776Y65059D02*
X107776Y71949D01*
X107776Y101280D02*
X107776Y108169D01*
X117705Y108169D01*
X13287Y1169D02*
X23216D01*
X24834Y7901D01*
X23216Y44280D02*
X24834Y37548D01*
X13287Y8059D02*
X13287Y1169D01*
X13287Y37390D02*
X13287Y44280D01*
X23216Y44280D01*
X76279Y1169D02*
X86209D01*
X87826Y7901D01*
X86209Y44280D02*
X87826Y37548D01*
X76279Y1169D02*
Y8059D01*
Y37390D02*
Y44280D01*
X86209Y44280D01*
X107776Y1169D02*
X117705D01*
X119322Y7901D01*
X117705Y44280D02*
X119322Y37548D01*
X107776Y1169D02*
Y8059D01*
Y37390D02*
Y44280D01*
X117705D01*
X231201Y6681D02*
Y16610D01*
X224470Y18227D02*
X231201Y16610D01*
X188091D02*
X194822Y18227D01*
X224311Y6681D02*
X231201D01*
X188091D02*
X194980D01*
X188091D02*
Y16610D01*
X231201Y32185D02*
Y42114D01*
X224470Y43731D02*
X231201Y42114D01*
X188091D02*
X194822Y43731D01*
X224311Y32185D02*
X231201D01*
X188091D02*
X194980D01*
X188091D02*
Y42114D01*
X274291Y1181D02*
X274291Y9646D01*
X240669Y38386D02*
X244803Y38386D01*
X240669Y1181D02*
Y9646D01*
Y18307D02*
Y28346D01*
Y36811D02*
Y38386D01*
X274961Y36811D02*
X274961Y38386D01*
Y28346D02*
X274961Y18307D01*
X270827Y38386D02*
X274961D01*
X244685Y141173D02*
X244685Y137630D01*
X261614Y141173D02*
X261614Y137630D01*
X128268Y156398D02*
X139449D01*
X128268Y170374D02*
X139449D01*
X128268D02*
X128268Y156398D01*
X139449D02*
Y170374D01*
X232874Y136929D02*
X232874Y130236D01*
X227362D02*
X232874D01*
X227362D02*
Y143622D01*
X232874D01*
X232874Y136929D01*
X227362Y146968D02*
X234055Y146968D01*
X227362Y146968D02*
X227362Y152480D01*
X240748Y152480D01*
X240748Y146968D01*
X234055Y146968D02*
X240748Y146968D01*
X243307Y61024D02*
X243307Y54331D01*
X243307Y61024D02*
X248819Y61024D01*
X248819Y47638D02*
X248819Y61024D01*
X243307Y47638D02*
X248819Y47638D01*
X243307Y54331D02*
X243307Y47638D01*
X241681D02*
X241681Y54331D01*
X236169Y47638D02*
X241681D01*
X236169D02*
Y61024D01*
X241681D01*
X241681Y54331D01*
X156004Y147146D02*
X196358D01*
X156004Y144390D02*
Y147146D01*
X196358Y143406D02*
Y147146D01*
X156004Y83169D02*
X196358D01*
X156004D02*
Y144390D01*
X196358Y83169D02*
Y143406D01*
X246654Y150906D02*
X252657Y150906D01*
X246654Y150906D02*
Y151890D01*
X252461Y150906D02*
X259646D01*
Y151890D01*
Y162913D02*
Y163898D01*
X253642D02*
X259646D01*
X246654D02*
X253937D01*
X246654D02*
X246654Y162913D01*
X76279Y65059D02*
X86209Y65059D01*
X87826Y71790D01*
X86209Y108169D02*
X87826Y101438D01*
X76279Y71949D02*
X76279Y65059D01*
X76279Y101280D02*
X76279Y108169D01*
X86209Y108169D01*
X44783Y1169D02*
X54712D01*
X56330Y7901D01*
X54712Y44280D02*
X56330Y37548D01*
X44783Y1169D02*
Y8059D01*
Y37390D02*
Y44280D01*
X54712Y44280D01*
X272244Y126772D02*
X278937D01*
Y121260D02*
Y126772D01*
X265551Y121260D02*
X278937D01*
X265551D02*
Y126772D01*
X272244D01*
X258661D02*
X265354D01*
Y121260D02*
Y126772D01*
X251969Y121260D02*
X265354D01*
X251969D02*
Y126772D01*
X258661D01*
X156693Y166535D02*
X163386D01*
X156693D02*
Y172047D01*
X170079D01*
Y166535D02*
Y172047D01*
X163386Y166535D02*
X170079D01*
X156693Y152756D02*
X163386D01*
X156693D02*
Y158268D01*
X170079D01*
Y152756D02*
Y158268D01*
X163386Y152756D02*
X170079D01*
X156693Y159646D02*
X163386D01*
X156693D02*
Y165157D01*
X170079D01*
Y159646D02*
Y165157D01*
X163386Y159646D02*
X170079D01*
X144016Y156398D02*
X155197D01*
X144016Y170374D02*
X155197D01*
X144016D02*
X144016Y156398D01*
X155197D02*
Y170374D01*
D58*
X134122Y67600D02*
X130123D01*
Y69599D01*
X130789Y70266D01*
X132122D01*
X132789Y69599D01*
Y67600D01*
X130123Y74265D02*
Y71599D01*
X134122D01*
Y74265D01*
X132122Y71599D02*
Y72932D01*
X134122Y75597D02*
X130123D01*
Y77597D01*
X130789Y78263D01*
X132122D01*
X132789Y77597D01*
Y75597D01*
Y76930D02*
X134122Y78263D01*
X130123Y79596D02*
Y80929D01*
Y80263D01*
X134122D01*
Y79596D01*
Y80929D01*
X130789Y85594D02*
X130123Y84928D01*
Y83595D01*
X130789Y82928D01*
X131456D01*
X132122Y83595D01*
Y84928D01*
X132789Y85594D01*
X133455D01*
X134122Y84928D01*
Y83595D01*
X133455Y82928D01*
X130789Y89593D02*
X130123Y88926D01*
Y87594D01*
X130789Y86927D01*
X133455D01*
X134122Y87594D01*
Y88926D01*
X133455Y89593D01*
X130123Y92925D02*
Y91592D01*
X130789Y90926D01*
X133455D01*
X134122Y91592D01*
Y92925D01*
X133455Y93592D01*
X130789D01*
X130123Y92925D01*
X134122Y94924D02*
X130123D01*
Y96924D01*
X130789Y97590D01*
X132122D01*
X132789Y96924D01*
Y94924D01*
X130123Y101589D02*
Y98923D01*
X134122D01*
Y101589D01*
X132122Y98923D02*
Y100256D01*
X140600Y67600D02*
X136601D01*
X137934Y68933D01*
X136601Y70266D01*
X140600D01*
Y71599D02*
X137934D01*
X136601Y72932D01*
X137934Y74265D01*
X140600D01*
X138601D01*
Y71599D01*
X136601Y75597D02*
Y76930D01*
Y76264D01*
X140600D01*
Y75597D01*
Y76930D01*
Y78930D02*
X136601D01*
X140600Y81595D01*
X136601D01*
Y82928D02*
X140600D01*
Y84928D01*
X139934Y85594D01*
X139267D01*
X138601Y84928D01*
Y82928D01*
Y84928D01*
X137934Y85594D01*
X137268D01*
X136601Y84928D01*
Y82928D01*
Y88926D02*
Y87594D01*
X137268Y86927D01*
X139934D01*
X140600Y87594D01*
Y88926D01*
X139934Y89593D01*
X137268D01*
X136601Y88926D01*
X140600Y90926D02*
X137934D01*
X136601Y92259D01*
X137934Y93592D01*
X140600D01*
X138601D01*
Y90926D01*
X140600Y94924D02*
X136601D01*
Y96924D01*
X137268Y97590D01*
X138601D01*
X139267Y96924D01*
Y94924D01*
Y96257D02*
X140600Y97590D01*
X136601Y98923D02*
X140600D01*
Y100923D01*
X139934Y101589D01*
X137268D01*
X136601Y100923D01*
Y98923D01*
Y106921D02*
X139267D01*
X140600Y108254D01*
X139267Y109586D01*
X136601D01*
X140600Y110919D02*
Y112252D01*
Y111586D01*
X136601D01*
X137268Y110919D01*
X256344Y64266D02*
X259842D01*
Y66015D01*
X259259Y66598D01*
X256927D01*
X256344Y66015D01*
Y64266D01*
X259842Y67765D02*
Y68931D01*
Y68348D01*
X256344D01*
X256927Y67765D01*
X278525Y102756D02*
X275026D01*
Y104505D01*
X275609Y105088D01*
X276776D01*
X277359Y104505D01*
Y102756D01*
X275609Y106255D02*
X275026Y106838D01*
Y108004D01*
X275609Y108587D01*
X276193D01*
X276776Y108004D01*
Y107421D01*
Y108004D01*
X277359Y108587D01*
X277942D01*
X278525Y108004D01*
Y106838D01*
X277942Y106255D01*
X131344Y34813D02*
Y33647D01*
Y34230D01*
X134259D01*
X134843Y33647D01*
Y33064D01*
X134259Y32480D01*
X134843Y35979D02*
Y37146D01*
Y36562D01*
X131344D01*
X131927Y35979D01*
Y38895D02*
X131344Y39478D01*
Y40644D01*
X131927Y41227D01*
X132510D01*
X133093Y40644D01*
Y40061D01*
Y40644D01*
X133676Y41227D01*
X134259D01*
X134843Y40644D01*
Y39478D01*
X134259Y38895D01*
X131344Y9506D02*
Y8339D01*
Y8923D01*
X134259D01*
X134843Y8339D01*
Y7756D01*
X134259Y7173D01*
X134843Y10672D02*
Y11838D01*
Y11255D01*
X131344D01*
X131927Y10672D01*
X134843Y15337D02*
X131344D01*
X133093Y13588D01*
Y15920D01*
X240954Y116142D02*
Y119641D01*
X242704D01*
X243287Y119057D01*
Y117891D01*
X242704Y117308D01*
X240954D01*
X242121D02*
X243287Y116142D01*
X244453D02*
X245619D01*
X245036D01*
Y119641D01*
X244453Y119057D01*
X249701Y119641D02*
X248535Y119057D01*
X247369Y117891D01*
Y116725D01*
X247952Y116142D01*
X249118D01*
X249701Y116725D01*
Y117308D01*
X249118Y117891D01*
X247369D01*
X216535Y74883D02*
Y71384D01*
X218868D01*
X220034Y74300D02*
X220617Y74883D01*
X221784D01*
X222367Y74300D01*
Y73717D01*
X221784Y73134D01*
X221201D01*
X221784D01*
X222367Y72551D01*
Y71968D01*
X221784Y71384D01*
X220617D01*
X220034Y71968D01*
X217958Y57087D02*
X221457D01*
Y59419D01*
Y62918D02*
Y60585D01*
X219124Y62918D01*
X218541D01*
X217958Y62335D01*
Y61169D01*
X218541Y60585D01*
X227362Y119641D02*
Y116142D01*
X229112D01*
X229695Y116725D01*
Y119057D01*
X229112Y119641D01*
X227362D01*
X233194D02*
X230861D01*
Y117891D01*
X232027Y118474D01*
X232611D01*
X233194Y117891D01*
Y116725D01*
X232611Y116142D01*
X231444D01*
X230861Y116725D01*
X218868Y82505D02*
X218285Y83088D01*
X217119D01*
X216535Y82505D01*
Y80172D01*
X217119Y79589D01*
X218285D01*
X218868Y80172D01*
X220034Y79589D02*
X221201D01*
X220617D01*
Y83088D01*
X220034Y82505D01*
X222950Y83088D02*
X225283D01*
Y82505D01*
X222950Y80172D01*
Y79589D01*
X191966Y74380D02*
X191383Y73797D01*
Y72630D01*
X191966Y72047D01*
X194299D01*
X194882Y72630D01*
Y73797D01*
X194299Y74380D01*
X194882Y75546D02*
Y76712D01*
Y76129D01*
X191383D01*
X191966Y75546D01*
Y78462D02*
X191383Y79045D01*
Y80211D01*
X191966Y80794D01*
X192549D01*
X193132Y80211D01*
X193716Y80794D01*
X194299D01*
X194882Y80211D01*
Y79045D01*
X194299Y78462D01*
X193716D01*
X193132Y79045D01*
X192549Y78462D01*
X191966D01*
X193132Y79045D02*
Y80211D01*
X184040Y65219D02*
X183457Y65802D01*
X182291D01*
X181708Y65219D01*
Y62886D01*
X182291Y62303D01*
X183457D01*
X184040Y62886D01*
X185207Y62303D02*
X186373D01*
X185790D01*
Y65802D01*
X185207Y65219D01*
X190455Y65802D02*
X188122D01*
Y64053D01*
X189289Y64636D01*
X189872D01*
X190455Y64053D01*
Y62886D01*
X189872Y62303D01*
X188706D01*
X188122Y62886D01*
X185468Y57443D02*
X184885Y58026D01*
X183719D01*
X183135Y57443D01*
Y55111D01*
X183719Y54528D01*
X184885D01*
X185468Y55111D01*
X186634Y54528D02*
X187801D01*
X187217D01*
Y58026D01*
X186634Y57443D01*
X191883Y58026D02*
X190716Y57443D01*
X189550Y56277D01*
Y55111D01*
X190133Y54528D01*
X191299D01*
X191883Y55111D01*
Y55694D01*
X191299Y56277D01*
X189550D01*
X270903Y168159D02*
X270320Y167576D01*
Y166409D01*
X270903Y165826D01*
X273236D01*
X273819Y166409D01*
Y167576D01*
X273236Y168159D01*
X270320Y169325D02*
Y171658D01*
X270903D01*
X273236Y169325D01*
X273819D01*
X263620Y168478D02*
X263036Y167895D01*
Y166729D01*
X263620Y166146D01*
X265952D01*
X266535Y166729D01*
Y167895D01*
X265952Y168478D01*
X263620Y169644D02*
X263036Y170228D01*
Y171394D01*
X263620Y171977D01*
X264203D01*
X264786Y171394D01*
X265369Y171977D01*
X265952D01*
X266535Y171394D01*
Y170228D01*
X265952Y169644D01*
X265369D01*
X264786Y170228D01*
X264203Y169644D01*
X263620D01*
X264786Y170228D02*
Y171394D01*
X271897Y136112D02*
X271314Y135529D01*
Y134363D01*
X271897Y133780D01*
X274229D01*
X274813Y134363D01*
Y135529D01*
X274229Y136112D01*
Y137278D02*
X274813Y137862D01*
Y139028D01*
X274229Y139611D01*
X271897D01*
X271314Y139028D01*
Y137862D01*
X271897Y137278D01*
X272480D01*
X273063Y137862D01*
Y139611D01*
X222084Y134633D02*
X221501Y134049D01*
Y132883D01*
X222084Y132300D01*
X224417D01*
X225000Y132883D01*
Y134049D01*
X224417Y134633D01*
X225000Y135799D02*
Y136965D01*
Y136382D01*
X221501D01*
X222084Y135799D01*
Y138715D02*
X221501Y139298D01*
Y140464D01*
X222084Y141047D01*
X224417D01*
X225000Y140464D01*
Y139298D01*
X224417Y138715D01*
X222084D01*
X275628Y53514D02*
X275044Y52930D01*
Y51764D01*
X275628Y51181D01*
X277960D01*
X278543Y51764D01*
Y52930D01*
X277960Y53514D01*
X278543Y54680D02*
Y55846D01*
Y55263D01*
X275044D01*
X275628Y54680D01*
X278543Y57596D02*
Y58762D01*
Y58179D01*
X275044D01*
X275628Y57596D01*
X207425Y164339D02*
X208008Y164922D01*
Y166089D01*
X207425Y166672D01*
X205093D01*
X204509Y166089D01*
Y164922D01*
X205093Y164339D01*
X208008Y161424D02*
Y162590D01*
X207425Y163173D01*
X205093D01*
X204509Y162590D01*
Y161424D01*
X205093Y160840D01*
X207425D01*
X208008Y161424D01*
X204509Y159674D02*
X208008D01*
X204509Y157342D01*
X208008D01*
X204509Y156175D02*
Y155009D01*
Y155592D01*
X208008D01*
X207425Y156175D01*
X110600Y126530D02*
X109434D01*
X110017D01*
Y123615D01*
X109434Y123031D01*
X108851D01*
X108268Y123615D01*
X111767Y123031D02*
X112933D01*
X112350D01*
Y126530D01*
X111767Y125947D01*
X79104Y126530D02*
X77938D01*
X78521D01*
Y123615D01*
X77938Y123031D01*
X77355D01*
X76772Y123615D01*
X82603Y123031D02*
X80270D01*
X82603Y125364D01*
Y125947D01*
X82020Y126530D01*
X80854D01*
X80270Y125947D01*
X46427Y126530D02*
X45261D01*
X45844D01*
Y123615D01*
X45261Y123031D01*
X44678D01*
X44094Y123615D01*
X47593Y125947D02*
X48177Y126530D01*
X49343D01*
X49926Y125947D01*
Y125364D01*
X49343Y124781D01*
X48760D01*
X49343D01*
X49926Y124198D01*
Y123615D01*
X49343Y123031D01*
X48177D01*
X47593Y123615D01*
X16112Y126530D02*
X14946D01*
X15529D01*
Y123615D01*
X14946Y123031D01*
X14363D01*
X13780Y123615D01*
X19028Y123031D02*
Y126530D01*
X17278Y124781D01*
X19611D01*
X16112Y62554D02*
X14946D01*
X15529D01*
Y59638D01*
X14946Y59055D01*
X14363D01*
X13780Y59638D01*
X19611Y62554D02*
X17278D01*
Y60804D01*
X18445Y61388D01*
X19028D01*
X19611Y60804D01*
Y59638D01*
X19028Y59055D01*
X17862D01*
X17278Y59638D01*
X47608Y62554D02*
X46442D01*
X47025D01*
Y59638D01*
X46442Y59055D01*
X45859D01*
X45276Y59638D01*
X51107Y62554D02*
X49941Y61971D01*
X48774Y60804D01*
Y59638D01*
X49358Y59055D01*
X50524D01*
X51107Y59638D01*
Y60221D01*
X50524Y60804D01*
X48774D01*
X110600Y62554D02*
X109434D01*
X110017D01*
Y59638D01*
X109434Y59055D01*
X108851D01*
X108268Y59638D01*
X111767Y61971D02*
X112350Y62554D01*
X113516D01*
X114099Y61971D01*
Y61388D01*
X113516Y60804D01*
X114099Y60221D01*
Y59638D01*
X113516Y59055D01*
X112350D01*
X111767Y59638D01*
Y60221D01*
X112350Y60804D01*
X111767Y61388D01*
Y61971D01*
X112350Y60804D02*
X113516D01*
X18081Y50743D02*
X16914D01*
X17497D01*
Y47827D01*
X16914Y47244D01*
X16331D01*
X15748Y47827D01*
X19247D02*
X19830Y47244D01*
X20996D01*
X21579Y47827D01*
Y50160D01*
X20996Y50743D01*
X19830D01*
X19247Y50160D01*
Y49577D01*
X19830Y48994D01*
X21579D01*
X79104Y50743D02*
X77938D01*
X78521D01*
Y47827D01*
X77938Y47244D01*
X77355D01*
X76772Y47827D01*
X80270Y47244D02*
X81437D01*
X80854D01*
Y50743D01*
X80270Y50160D01*
X83186Y47244D02*
X84352D01*
X83769D01*
Y50743D01*
X83186Y50160D01*
X110600Y50743D02*
X109434D01*
X110017D01*
Y47827D01*
X109434Y47244D01*
X108851D01*
X108268Y47827D01*
X111767Y47244D02*
X112933D01*
X112350D01*
Y50743D01*
X111767Y50160D01*
X117015Y47244D02*
X114682D01*
X117015Y49577D01*
Y50160D01*
X116432Y50743D01*
X115266D01*
X114682Y50160D01*
X233375Y8522D02*
Y7355D01*
Y7938D01*
X236291D01*
X236874Y7355D01*
Y6772D01*
X236291Y6189D01*
X236874Y9688D02*
Y10854D01*
Y10271D01*
X233375D01*
X233958Y9688D01*
X233375Y14936D02*
Y12604D01*
X235124D01*
X234541Y13770D01*
Y14353D01*
X235124Y14936D01*
X236291D01*
X236874Y14353D01*
Y13187D01*
X236291Y12604D01*
X233326Y35214D02*
Y34048D01*
Y34631D01*
X236242D01*
X236825Y34048D01*
Y33465D01*
X236242Y32882D01*
X236825Y36381D02*
Y37547D01*
Y36964D01*
X233326D01*
X233909Y36381D01*
X233326Y41629D02*
X233909Y40463D01*
X235076Y39296D01*
X236242D01*
X236825Y39880D01*
Y41046D01*
X236242Y41629D01*
X235659D01*
X235076Y41046D01*
Y39296D01*
X256270Y6452D02*
X255103D01*
X255686D01*
Y3536D01*
X255103Y2953D01*
X254520D01*
X253937Y3536D01*
X257436Y2953D02*
X258602D01*
X258019D01*
Y6452D01*
X257436Y5869D01*
X260352Y6452D02*
X262684D01*
Y5869D01*
X260352Y3536D01*
Y2953D01*
X263800Y148699D02*
Y145200D01*
X266133D01*
X267299D02*
X268465D01*
X267882D01*
Y148699D01*
X267299Y148116D01*
X131358Y151043D02*
Y154542D01*
X133108D01*
X133691Y153959D01*
Y152792D01*
X133108Y152209D01*
X131358D01*
X134857Y151043D02*
X136023D01*
X135440D01*
Y154542D01*
X134857Y153959D01*
X219400Y133800D02*
X215901D01*
Y135549D01*
X216484Y136133D01*
X217651D01*
X218234Y135549D01*
Y133800D01*
Y134966D02*
X219400Y136133D01*
X216484Y137299D02*
X215901Y137882D01*
Y139048D01*
X216484Y139631D01*
X217067D01*
X217651Y139048D01*
X218234Y139631D01*
X218817D01*
X219400Y139048D01*
Y137882D01*
X218817Y137299D01*
X218234D01*
X217651Y137882D01*
X217067Y137299D01*
X216484D01*
X217651Y137882D02*
Y139048D01*
X230906Y154661D02*
Y158160D01*
X232655D01*
X233238Y157577D01*
Y156411D01*
X232655Y155828D01*
X230906D01*
X232072D02*
X233238Y154661D01*
X234404Y155245D02*
X234987Y154661D01*
X236154D01*
X236737Y155245D01*
Y157577D01*
X236154Y158160D01*
X234987D01*
X234404Y157577D01*
Y156994D01*
X234987Y156411D01*
X236737D01*
X234252Y50197D02*
X230753D01*
Y51946D01*
X231336Y52529D01*
X232503D01*
X233086Y51946D01*
Y50197D01*
Y51363D02*
X234252Y52529D01*
Y53696D02*
Y54862D01*
Y54279D01*
X230753D01*
X231336Y53696D01*
Y56611D02*
X230753Y57195D01*
Y58361D01*
X231336Y58944D01*
X233669D01*
X234252Y58361D01*
Y57195D01*
X233669Y56611D01*
X231336D01*
X229134Y50197D02*
X225635D01*
Y51946D01*
X226218Y52529D01*
X227384D01*
X227968Y51946D01*
Y50197D01*
Y51363D02*
X229134Y52529D01*
Y53696D02*
Y54862D01*
Y54279D01*
X225635D01*
X226218Y53696D01*
X229134Y56611D02*
Y57778D01*
Y57195D01*
X225635D01*
X226218Y56611D01*
X243579Y169108D02*
X245911D01*
X244745D01*
Y165609D01*
X247078D02*
Y169108D01*
X248827D01*
X249410Y168525D01*
Y167359D01*
X248827Y166775D01*
X247078D01*
X252909Y165609D02*
X250576D01*
X252909Y167942D01*
Y168525D01*
X252326Y169108D01*
X251160D01*
X250576Y168525D01*
X254075Y165609D02*
X255242D01*
X254658D01*
Y169108D01*
X254075Y168525D01*
X174213Y80491D02*
Y77575D01*
X174796Y76992D01*
X175962D01*
X176545Y77575D01*
Y80491D01*
X177711Y76992D02*
X178878D01*
X178295D01*
Y80491D01*
X177711Y79908D01*
X235236Y167987D02*
Y165071D01*
X235819Y164488D01*
X236986D01*
X237569Y165071D01*
Y167987D01*
X241068Y164488D02*
X238735D01*
X241068Y166821D01*
Y167404D01*
X240484Y167987D01*
X239318D01*
X238735Y167404D01*
X79104Y62554D02*
X77938D01*
X78521D01*
Y59638D01*
X77938Y59055D01*
X77355D01*
X76772Y59638D01*
X80270Y62554D02*
X82603D01*
Y61971D01*
X80270Y59638D01*
Y59055D01*
X47608Y50830D02*
X46442D01*
X47025D01*
Y47914D01*
X46442Y47331D01*
X45859D01*
X45276Y47914D01*
X48774Y47331D02*
X49941D01*
X49358D01*
Y50830D01*
X48774Y50247D01*
X51690D02*
X52273Y50830D01*
X53440D01*
X54023Y50247D01*
Y47914D01*
X53440Y47331D01*
X52273D01*
X51690Y47914D01*
Y50247D01*
X208502Y147608D02*
X207918Y147025D01*
Y145859D01*
X208502Y145276D01*
X210834D01*
X211417Y145859D01*
Y147025D01*
X210834Y147608D01*
X211417Y148775D02*
Y149941D01*
Y149358D01*
X207918D01*
X208502Y148775D01*
X201809Y139734D02*
X201225Y139151D01*
Y137985D01*
X201809Y137402D01*
X204141D01*
X204724Y137985D01*
Y139151D01*
X204141Y139734D01*
X204724Y143233D02*
Y140900D01*
X202392Y143233D01*
X201809D01*
X201225Y142650D01*
Y141484D01*
X201809Y140900D01*
X258661Y74410D02*
X255163D01*
Y76159D01*
X255746Y76742D01*
X256912D01*
X257495Y76159D01*
Y74410D01*
X255163Y80241D02*
Y77908D01*
X256912D01*
X256329Y79075D01*
Y79658D01*
X256912Y80241D01*
X258078D01*
X258661Y79658D01*
Y78491D01*
X258078Y77908D01*
X270605Y115551D02*
Y119050D01*
X272355D01*
X272938Y118467D01*
Y117300D01*
X272355Y116717D01*
X270605D01*
X271772D02*
X272938Y115551D01*
X274104D02*
X275270D01*
X274687D01*
Y119050D01*
X274104Y118467D01*
X255724Y116142D02*
Y119641D01*
X257474D01*
X258057Y119057D01*
Y117891D01*
X257474Y117308D01*
X255724D01*
X256891D02*
X258057Y116142D01*
X261556D02*
X259223D01*
X261556Y118474D01*
Y119057D01*
X260973Y119641D01*
X259806D01*
X259223Y119057D01*
X228785Y101831D02*
Y105330D01*
X230534D01*
X231117Y104746D01*
Y103580D01*
X230534Y102997D01*
X228785D01*
X229951D02*
X231117Y101831D01*
X232283Y104746D02*
X232867Y105330D01*
X234033D01*
X234616Y104746D01*
Y104163D01*
X234033Y103580D01*
X233450D01*
X234033D01*
X234616Y102997D01*
Y102414D01*
X234033Y101831D01*
X232867D01*
X232283Y102414D01*
X228991Y109114D02*
Y112613D01*
X230740D01*
X231324Y112030D01*
Y110864D01*
X230740Y110281D01*
X228991D01*
X230157D02*
X231324Y109114D01*
X234239D02*
Y112613D01*
X232490Y110864D01*
X234822D01*
X234743Y66004D02*
X231244D01*
Y67753D01*
X231827Y68336D01*
X232994D01*
X233577Y67753D01*
Y66004D01*
Y67170D02*
X234743Y68336D01*
X231244Y71835D02*
Y69503D01*
X232994D01*
X232410Y70669D01*
Y71252D01*
X232994Y71835D01*
X234160D01*
X234743Y71252D01*
Y70086D01*
X234160Y69503D01*
X229021Y95319D02*
Y98818D01*
X230771D01*
X231354Y98235D01*
Y97069D01*
X230771Y96485D01*
X229021D01*
X230188D02*
X231354Y95319D01*
X234853Y98818D02*
X233686Y98235D01*
X232520Y97069D01*
Y95902D01*
X233103Y95319D01*
X234269D01*
X234853Y95902D01*
Y96485D01*
X234269Y97069D01*
X232520D01*
X229021Y88713D02*
Y92212D01*
X230771D01*
X231354Y91628D01*
Y90462D01*
X230771Y89879D01*
X229021D01*
X230188D02*
X231354Y88713D01*
X232520Y92212D02*
X234853D01*
Y91628D01*
X232520Y89296D01*
Y88713D01*
X147106Y151575D02*
Y155074D01*
X148856D01*
X149439Y154490D01*
Y153324D01*
X148856Y152741D01*
X147106D01*
X152938Y151575D02*
X150605D01*
X152938Y153907D01*
Y154490D01*
X152355Y155074D01*
X151188D01*
X150605Y154490D01*
M02*
