G04 Layer_Color=8388736*
%FSLAX25Y25*%
%MOIN*%
G70*
G01*
G75*
%ADD59R,0.02768X0.02768*%
%ADD60R,0.01981X0.04737*%
%ADD61R,0.03950X0.04343*%
%ADD62C,0.07874*%
%ADD63R,0.03950X0.06706*%
%ADD64R,0.03162X0.06706*%
%ADD65R,0.05131X0.05524*%
%ADD66R,0.05524X0.05131*%
%ADD67R,0.04737X0.04343*%
%ADD68R,0.03950X0.03950*%
%ADD69R,0.03950X0.03950*%
%ADD70R,0.04343X0.04737*%
%ADD71R,0.02768X0.02768*%
%ADD72R,0.09461X0.04934*%
%ADD73R,0.04934X0.04737*%
%ADD74R,0.06706X0.03950*%
%ADD75R,0.06706X0.03162*%
%ADD76R,0.01981X0.05524*%
%ADD77R,0.01587X0.04737*%
%ADD78R,0.18516X0.07690*%
%ADD79R,0.04343X0.03950*%
%ADD80R,0.03162X0.03556*%
%ADD81C,0.04737*%
%ADD82R,0.02572X0.02572*%
%ADD83R,0.03320X0.02060*%
%ADD84R,0.02060X0.03320*%
%ADD85R,0.07690X0.10642*%
G04:AMPARAMS|DCode=86|XSize=25.72mil|YSize=35.56mil|CornerRadius=8.43mil|HoleSize=0mil|Usage=FLASHONLY|Rotation=90.000|XOffset=0mil|YOffset=0mil|HoleType=Round|Shape=RoundedRectangle|*
%AMROUNDEDRECTD86*
21,1,0.02572,0.01870,0,0,90.0*
21,1,0.00886,0.03556,0,0,90.0*
1,1,0.01686,0.00935,0.00443*
1,1,0.01686,0.00935,-0.00443*
1,1,0.01686,-0.00935,-0.00443*
1,1,0.01686,-0.00935,0.00443*
%
%ADD86ROUNDEDRECTD86*%
%ADD87C,0.04934*%
%ADD88C,0.07099*%
%ADD89R,0.07099X0.07099*%
%ADD90C,0.03359*%
%ADD91O,0.04737X0.07099*%
%ADD92C,0.08674*%
D59*
X198819Y138779D02*
D03*
Y142716D02*
D03*
X204921Y149607D02*
D03*
X204921Y145669D02*
D03*
X179370Y160865D02*
D03*
X179370Y164802D02*
D03*
D60*
X259842Y58268D02*
D03*
X257874D02*
D03*
X255906Y58268D02*
D03*
Y51968D02*
D03*
X257874Y51968D02*
D03*
X259842D02*
D03*
D61*
X240241Y68898D02*
D03*
X246540D02*
D03*
X246728Y97303D02*
D03*
X240429D02*
D03*
X240429Y90413D02*
D03*
X246728D02*
D03*
X240399Y111083D02*
D03*
X246698D02*
D03*
Y104193D02*
D03*
X240399D02*
D03*
X248592Y124016D02*
D03*
X242293D02*
D03*
X230906Y149724D02*
D03*
X237205D02*
D03*
X275394Y124016D02*
D03*
X269094D02*
D03*
X261811D02*
D03*
X255512D02*
D03*
X160236Y169291D02*
D03*
X166535D02*
D03*
X160236Y155512D02*
D03*
X166535D02*
D03*
X160236Y162402D02*
D03*
X166535D02*
D03*
D62*
X4921Y168307D02*
D03*
X276575Y4921D02*
D03*
D63*
X171260Y42323D02*
D03*
Y31299D02*
D03*
X147638Y42323D02*
D03*
X147638Y31299D02*
D03*
X171260Y17016D02*
D03*
X171260Y5992D02*
D03*
X147638Y17016D02*
D03*
X147638Y5992D02*
D03*
X221457Y17016D02*
D03*
X221457Y5992D02*
D03*
X197835Y17016D02*
D03*
X197835Y5992D02*
D03*
X221457Y42520D02*
D03*
Y31496D02*
D03*
X197835Y42520D02*
D03*
Y31496D02*
D03*
D64*
X165354Y42323D02*
D03*
X161417Y31299D02*
D03*
X157480Y42323D02*
D03*
X153543Y31299D02*
D03*
X165354Y17016D02*
D03*
X161417Y5992D02*
D03*
X157480Y17016D02*
D03*
X153543Y5992D02*
D03*
X215551Y17016D02*
D03*
X211614Y5992D02*
D03*
X207677Y17016D02*
D03*
X203740Y5992D02*
D03*
X215551Y42520D02*
D03*
X211614Y31496D02*
D03*
X207677Y42520D02*
D03*
X203740Y31496D02*
D03*
D65*
X211667Y72865D02*
D03*
X204383D02*
D03*
X234055Y124016D02*
D03*
X226378Y124016D02*
D03*
D66*
X211706Y63996D02*
D03*
Y56713D02*
D03*
X237992Y140571D02*
D03*
Y133287D02*
D03*
D67*
X211768Y81274D02*
D03*
X204484D02*
D03*
X203734Y63835D02*
D03*
X196450Y63835D02*
D03*
D68*
X198228Y73062D02*
D03*
Y78967D02*
D03*
D69*
X203746Y56713D02*
D03*
X197840Y56713D02*
D03*
D70*
X272441Y161043D02*
D03*
Y153760D02*
D03*
X265551Y160945D02*
D03*
X265551Y153661D02*
D03*
X266535Y140571D02*
D03*
Y133287D02*
D03*
X269835Y58908D02*
D03*
Y51624D02*
D03*
D71*
X186024Y160886D02*
D03*
X182087Y160886D02*
D03*
X179331Y150106D02*
D03*
X175394D02*
D03*
D72*
X195651Y155058D02*
D03*
Y166672D02*
D03*
D73*
X189647Y160865D02*
D03*
D74*
X118110Y138780D02*
D03*
X107087Y138780D02*
D03*
X118110Y162402D02*
D03*
X107087D02*
D03*
X86614Y138780D02*
D03*
X75590D02*
D03*
X86614Y162402D02*
D03*
X75590Y162402D02*
D03*
X55118Y138780D02*
D03*
X44094D02*
D03*
X55118Y162402D02*
D03*
X44094D02*
D03*
X23622Y138780D02*
D03*
X12598Y138780D02*
D03*
X23622Y162402D02*
D03*
X12598Y162402D02*
D03*
X23622Y74803D02*
D03*
X12598Y74803D02*
D03*
X23622Y98425D02*
D03*
X12598D02*
D03*
X55118Y74803D02*
D03*
X44094D02*
D03*
X55118Y98425D02*
D03*
X44094Y98425D02*
D03*
X118110Y74803D02*
D03*
X107087Y74803D02*
D03*
X118110Y98425D02*
D03*
X107087Y98425D02*
D03*
X23622Y10913D02*
D03*
X12598Y10913D02*
D03*
X23622Y34536D02*
D03*
X12598Y34536D02*
D03*
X86614Y10913D02*
D03*
X75590Y10913D02*
D03*
X86614Y34536D02*
D03*
X75590D02*
D03*
X118110Y10913D02*
D03*
X107087Y10913D02*
D03*
X118110Y34535D02*
D03*
X107087D02*
D03*
X86614Y74803D02*
D03*
X75591D02*
D03*
X86614Y98425D02*
D03*
X75591Y98425D02*
D03*
X55118Y10913D02*
D03*
X44094Y10913D02*
D03*
X55118Y34536D02*
D03*
X44094D02*
D03*
D75*
X118110Y144685D02*
D03*
X107087Y148622D02*
D03*
X118110Y152559D02*
D03*
X107087Y156496D02*
D03*
X86614Y144685D02*
D03*
X75590Y148622D02*
D03*
X86614Y152559D02*
D03*
X75590Y156496D02*
D03*
X55118Y144685D02*
D03*
X44094Y148622D02*
D03*
X55118Y152559D02*
D03*
X44094Y156496D02*
D03*
X23622Y144685D02*
D03*
X12598Y148622D02*
D03*
X23622Y152559D02*
D03*
X12598Y156496D02*
D03*
X23622Y80709D02*
D03*
X12598Y84646D02*
D03*
X23622Y88583D02*
D03*
X12598Y92520D02*
D03*
X55118Y80709D02*
D03*
X44094Y84646D02*
D03*
X55118Y88583D02*
D03*
X44094Y92520D02*
D03*
X118110Y80709D02*
D03*
X107087Y84646D02*
D03*
X118110Y88583D02*
D03*
X107087Y92520D02*
D03*
X23622Y16819D02*
D03*
X12598Y20756D02*
D03*
X23622Y24693D02*
D03*
X12598Y28630D02*
D03*
X86614Y16819D02*
D03*
X75590Y20756D02*
D03*
X86614Y24693D02*
D03*
X75590Y28630D02*
D03*
X118110Y16819D02*
D03*
X107087Y20756D02*
D03*
X118110Y24693D02*
D03*
X107087Y28630D02*
D03*
X86614Y80709D02*
D03*
X75591Y84646D02*
D03*
X86614Y88583D02*
D03*
X75591Y92520D02*
D03*
X55118Y16819D02*
D03*
X44094Y20756D02*
D03*
X55118Y24693D02*
D03*
X44094Y28630D02*
D03*
D76*
X268701Y42047D02*
D03*
X266732D02*
D03*
X264764D02*
D03*
X262795Y42047D02*
D03*
X260827Y42047D02*
D03*
X258858D02*
D03*
X256890Y42047D02*
D03*
X254921D02*
D03*
X252953Y42047D02*
D03*
X250984D02*
D03*
X249016Y42047D02*
D03*
X247047D02*
D03*
D77*
X257874Y11811D02*
D03*
Y24016D02*
D03*
D78*
X253150Y145799D02*
D03*
Y133004D02*
D03*
D79*
X230118Y133780D02*
D03*
Y140079D02*
D03*
X246063Y57480D02*
D03*
X246063Y51181D02*
D03*
X238925D02*
D03*
Y57480D02*
D03*
D80*
X179370Y158001D02*
D03*
X179370Y153277D02*
D03*
D81*
X258661Y167441D02*
D03*
D82*
X172244Y132480D02*
D03*
X176181D02*
D03*
X180118D02*
D03*
X172244Y129331D02*
D03*
X176181D02*
D03*
X180118D02*
D03*
X172244Y126181D02*
D03*
X176181D02*
D03*
X180118D02*
D03*
X172244Y123031D02*
D03*
X176181D02*
D03*
X180118D02*
D03*
X172244Y119882D02*
D03*
X176181D02*
D03*
X180118D02*
D03*
X172244Y116732D02*
D03*
X176181D02*
D03*
X180118D02*
D03*
X172244Y113583D02*
D03*
X176181D02*
D03*
X180118D02*
D03*
X172244Y110433D02*
D03*
X176181D02*
D03*
X180118D02*
D03*
X172244Y107283D02*
D03*
X176181D02*
D03*
X180118D02*
D03*
X172244Y104134D02*
D03*
X176181D02*
D03*
X180118D02*
D03*
X172244Y100984D02*
D03*
X176181D02*
D03*
X180118D02*
D03*
X172244Y97835D02*
D03*
X176181D02*
D03*
X180118D02*
D03*
D83*
X193898Y91536D02*
D03*
X190354Y93110D02*
D03*
X193898Y94685D02*
D03*
X190354Y96260D02*
D03*
X193898Y97835D02*
D03*
X190354Y99410D02*
D03*
X193898Y100984D02*
D03*
X190354Y102559D02*
D03*
X193898Y104134D02*
D03*
X190354Y105709D02*
D03*
X193898Y107283D02*
D03*
X190354Y108858D02*
D03*
X193898Y110433D02*
D03*
X190354Y112008D02*
D03*
X193898Y113583D02*
D03*
X190354Y115157D02*
D03*
X193898Y116732D02*
D03*
X190354Y118307D02*
D03*
X193898Y119882D02*
D03*
X190354Y121457D02*
D03*
X193898Y123031D02*
D03*
X190354Y124606D02*
D03*
X193898Y126181D02*
D03*
X190354Y127756D02*
D03*
X193898Y129331D02*
D03*
X190354Y130906D02*
D03*
X193898Y132480D02*
D03*
X190354Y134055D02*
D03*
X193898Y135630D02*
D03*
X190354Y137205D02*
D03*
X193898Y138780D02*
D03*
X158465D02*
D03*
X162008Y137205D02*
D03*
X158465Y135630D02*
D03*
X162008Y134055D02*
D03*
X158465Y132480D02*
D03*
X162008Y130906D02*
D03*
X158465Y129331D02*
D03*
X162008Y127756D02*
D03*
X158465Y126181D02*
D03*
X162008Y124606D02*
D03*
X158465Y123031D02*
D03*
X162008Y121457D02*
D03*
X158465Y119882D02*
D03*
X162008Y118307D02*
D03*
X158465Y116732D02*
D03*
X162008Y115157D02*
D03*
X158465Y113583D02*
D03*
X162008Y112008D02*
D03*
X158465Y110433D02*
D03*
X162008Y108858D02*
D03*
X158465Y107283D02*
D03*
X162008Y105709D02*
D03*
X158465Y104134D02*
D03*
X162008Y102559D02*
D03*
X158465Y100984D02*
D03*
X162008Y99410D02*
D03*
X158465Y97835D02*
D03*
X162008Y96260D02*
D03*
X158465Y94685D02*
D03*
X162008Y93110D02*
D03*
X158465Y91536D02*
D03*
D84*
X191929Y144685D02*
D03*
X190354Y141142D02*
D03*
X188779Y144685D02*
D03*
X187205Y141142D02*
D03*
X185630Y144685D02*
D03*
X184055Y141142D02*
D03*
X182480Y144685D02*
D03*
X180905Y141142D02*
D03*
X179331Y144685D02*
D03*
X177756Y141142D02*
D03*
X176181Y144685D02*
D03*
X174606Y141142D02*
D03*
X173031Y144685D02*
D03*
X171457Y141142D02*
D03*
X169882Y144685D02*
D03*
X168307Y141142D02*
D03*
X166732Y144685D02*
D03*
X165157Y141142D02*
D03*
X163583Y144685D02*
D03*
X162008Y141142D02*
D03*
X160433Y144685D02*
D03*
Y85630D02*
D03*
X162008Y89173D02*
D03*
X163583Y85630D02*
D03*
X165157Y89173D02*
D03*
X166732Y85630D02*
D03*
X168307Y89173D02*
D03*
X169882Y85630D02*
D03*
X171457Y89173D02*
D03*
X173031Y85630D02*
D03*
X174606Y89173D02*
D03*
X176181Y85630D02*
D03*
X177756Y89173D02*
D03*
X179331Y85630D02*
D03*
X180905Y89173D02*
D03*
X182480Y85630D02*
D03*
X184055Y89173D02*
D03*
X185630Y85630D02*
D03*
X187205Y89173D02*
D03*
X188779Y85630D02*
D03*
X190354Y89173D02*
D03*
X191929Y85630D02*
D03*
D85*
X253150Y157402D02*
D03*
D86*
X258661Y161142D02*
D03*
Y157402D02*
D03*
Y153661D02*
D03*
X247638D02*
D03*
Y157402D02*
D03*
X247638Y161142D02*
D03*
D87*
X268035Y103209D02*
D03*
X263035D02*
D03*
X268035Y108209D02*
D03*
X263035D02*
D03*
X131358Y160886D02*
D03*
Y165886D02*
D03*
X136358Y160886D02*
D03*
Y165886D02*
D03*
X147106Y160886D02*
D03*
Y165886D02*
D03*
X152106Y160886D02*
D03*
Y165886D02*
D03*
D88*
X248124Y79724D02*
D03*
D89*
X238124D02*
D03*
D90*
X256299Y37126D02*
D03*
X259449D02*
D03*
X253150D02*
D03*
X262598D02*
D03*
X250000D02*
D03*
X265748D02*
D03*
X246850D02*
D03*
X268898D02*
D03*
X254724Y34370D02*
D03*
X261024Y34370D02*
D03*
X251575Y34370D02*
D03*
X264173Y34370D02*
D03*
X248425Y34370D02*
D03*
X267323D02*
D03*
D91*
X274685Y32598D02*
D03*
X241063D02*
D03*
X274685Y13976D02*
D03*
X241063D02*
D03*
D92*
X265620Y86614D02*
D03*
X34449Y118110D02*
D03*
Y55118D02*
D03*
M02*
