G04 Layer_Color=32896*
%FSLAX25Y25*%
%MOIN*%
G70*
G01*
G75*
%ADD39C,0.01000*%
%ADD58C,0.00700*%
G36*
X61856Y30672D02*
X62189D01*
X62633Y30598D01*
X63115Y30524D01*
X63707Y30413D01*
X64337Y30265D01*
X65003Y30080D01*
X65707Y29858D01*
X66447Y29562D01*
X67225Y29228D01*
X68040Y28821D01*
X68817Y28340D01*
X69632Y27821D01*
X70410Y27192D01*
X70447Y27155D01*
X70521Y27081D01*
X70632Y26932D01*
X70817Y26784D01*
X71002Y26562D01*
X71224Y26303D01*
X71743Y25710D01*
X72261Y25044D01*
X72779Y24340D01*
X73224Y23674D01*
X73372Y23341D01*
X73520Y23007D01*
X73557Y22933D01*
X73631Y22785D01*
X73779Y22489D01*
X73927Y22082D01*
X74112Y21600D01*
X74335Y21045D01*
X74520Y20415D01*
X74668Y19712D01*
Y19638D01*
X74705Y19489D01*
X74779Y19156D01*
X74816Y18934D01*
X74853Y18712D01*
Y18416D01*
X74890Y18082D01*
X74927Y17712D01*
X74964Y17305D01*
Y16860D01*
X75001Y16342D01*
Y15786D01*
Y15194D01*
Y4863D01*
Y4826D01*
X75075Y4715D01*
X75149Y4677D01*
X75261Y4603D01*
X75409Y4566D01*
X75705D01*
X75816Y4529D01*
X75964Y4492D01*
X76334Y4418D01*
X76816Y4344D01*
X77371Y4196D01*
X77927Y4048D01*
X78556Y3863D01*
X79149Y3678D01*
Y3567D01*
X79037Y3492D01*
X76112Y4196D01*
X76001D01*
X75890Y4233D01*
X75742Y4270D01*
X75520D01*
X75297Y4307D01*
X74742Y4381D01*
X74076Y4455D01*
X73372Y4492D01*
X71854Y4566D01*
X71446D01*
X71187Y4529D01*
X70891D01*
X70484Y4492D01*
X70039Y4455D01*
X69521Y4418D01*
X68928Y4344D01*
X68225Y4270D01*
X67447Y4196D01*
X66595Y4085D01*
X65670Y3974D01*
X64633Y3826D01*
X63485Y3678D01*
X62152Y3641D01*
X61967D01*
X61856Y3678D01*
X61708D01*
X61522Y3715D01*
X61263Y3752D01*
X61004Y3789D01*
X60671Y3826D01*
X60300Y3900D01*
X59856Y3974D01*
X59375Y4048D01*
X58819Y4159D01*
X58190Y4270D01*
X57486Y4418D01*
X57412D01*
X57190Y4492D01*
X56819Y4529D01*
X56375Y4603D01*
X55857Y4677D01*
X55264Y4715D01*
X54635Y4789D01*
X52672D01*
X52376Y4752D01*
X52006Y4715D01*
X51561Y4677D01*
X51043Y4640D01*
X50450Y4566D01*
X49747Y4455D01*
X49006Y4344D01*
X48155Y4159D01*
X47229Y4011D01*
X46229Y3789D01*
X45155Y3529D01*
X44007Y3233D01*
X42785Y2900D01*
X42637D01*
X42600Y2937D01*
Y3011D01*
X42674Y3085D01*
X42822Y3159D01*
X42933Y3196D01*
X43081Y3270D01*
X43304Y3344D01*
X43563Y3418D01*
X43859Y3492D01*
X44229Y3604D01*
X44674Y3715D01*
X45192Y3826D01*
X45822Y3974D01*
X46488Y4122D01*
X46525D01*
X46599Y4159D01*
X46784Y4233D01*
X47007Y4344D01*
X47044Y4381D01*
X47081Y4418D01*
Y15194D01*
Y15231D01*
Y15379D01*
Y15601D01*
Y15898D01*
X47118Y16231D01*
Y16638D01*
X47155Y17083D01*
X47192Y17564D01*
X47266Y18564D01*
X47377Y19564D01*
X47488Y20045D01*
X47562Y20489D01*
X47710Y20897D01*
X47821Y21267D01*
X47858Y21341D01*
X47895Y21489D01*
X48006Y21748D01*
X48155Y22082D01*
X48340Y22489D01*
X48599Y22933D01*
X48858Y23452D01*
X49191Y24044D01*
X49562Y24600D01*
X50006Y25229D01*
X50487Y25859D01*
X51043Y26451D01*
X51598Y27044D01*
X52265Y27636D01*
X52968Y28192D01*
X53709Y28673D01*
X53746D01*
X53820Y28747D01*
X53931Y28821D01*
X54116Y28895D01*
X54302Y29006D01*
X54561Y29154D01*
X55116Y29414D01*
X55783Y29710D01*
X56523Y30006D01*
X57301Y30228D01*
X58078Y30413D01*
X58116Y30450D01*
X58227Y30487D01*
X58412Y30524D01*
X58523D01*
X58708Y30561D01*
X58893D01*
X59152Y30598D01*
X59449Y30635D01*
X59782Y30672D01*
X60189D01*
X60634Y30709D01*
X61596D01*
X61856Y30672D01*
D02*
G37*
%LPC*%
G36*
X61226Y30487D02*
X60448D01*
X60152Y30450D01*
X59819Y30413D01*
X59412Y30339D01*
X58930Y30265D01*
X58412Y30154D01*
X57856Y30043D01*
X57264Y29858D01*
X56634Y29673D01*
X55968Y29414D01*
X55264Y29117D01*
X54561Y28784D01*
X53857Y28377D01*
X53117Y27932D01*
X53079D01*
X53043Y27858D01*
X52931Y27784D01*
X52783Y27636D01*
X52376Y27303D01*
X51932Y26895D01*
X51376Y26377D01*
X50821Y25785D01*
X50265Y25118D01*
X49747Y24452D01*
X49710Y24414D01*
X49636Y24303D01*
X49525Y24081D01*
X49376Y23822D01*
X49191Y23489D01*
X49006Y23081D01*
X48784Y22637D01*
X48562Y22119D01*
X48340Y21563D01*
X48118Y20971D01*
X47747Y19712D01*
X47599Y19008D01*
X47488Y18304D01*
X47414Y17601D01*
X47377Y16860D01*
Y16823D01*
Y16638D01*
X47414Y16416D01*
Y16083D01*
X47488Y15638D01*
X47562Y15157D01*
X47636Y14602D01*
X47784Y14009D01*
X47932Y13379D01*
X48155Y12676D01*
X48414Y11935D01*
X48710Y11195D01*
X49080Y10417D01*
X49488Y9640D01*
X49969Y8862D01*
X50524Y8084D01*
X50561Y8047D01*
X50635Y7973D01*
X50784Y7825D01*
X50932Y7677D01*
X51413Y7232D01*
X51969Y6714D01*
X52561Y6159D01*
X53191Y5677D01*
X53487Y5455D01*
X53746Y5307D01*
X54005Y5159D01*
X54227Y5085D01*
X54339D01*
Y5122D01*
X54302D01*
X54227Y5196D01*
X54116Y5270D01*
X53931Y5381D01*
X53709Y5529D01*
X53413Y5714D01*
X53376Y5751D01*
X53302Y5788D01*
X53191Y5862D01*
X53043Y6010D01*
X52635Y6344D01*
X52117Y6788D01*
X51561Y7307D01*
X50969Y7936D01*
X50376Y8640D01*
X49821Y9380D01*
X49784Y9417D01*
X49710Y9528D01*
X49636Y9713D01*
X49488Y9973D01*
X49302Y10306D01*
X49117Y10676D01*
X48932Y11084D01*
X48747Y11565D01*
X48525Y12083D01*
X48340Y12639D01*
X47969Y13861D01*
X47821Y14490D01*
X47747Y15157D01*
X47673Y15823D01*
X47636Y16490D01*
Y16971D01*
Y17045D01*
Y17231D01*
X47673Y17490D01*
X47710Y17897D01*
X47747Y18341D01*
X47858Y18897D01*
X47969Y19526D01*
X48155Y20193D01*
X48377Y20934D01*
X48673Y21711D01*
X49006Y22489D01*
X49413Y23303D01*
X49895Y24155D01*
X50450Y24970D01*
X51080Y25785D01*
X51820Y26599D01*
X51858Y26636D01*
X51932Y26710D01*
X52080Y26821D01*
X52265Y26970D01*
X52487Y27155D01*
X52783Y27340D01*
X53413Y27821D01*
X54190Y28303D01*
X55005Y28784D01*
X55894Y29191D01*
X56301Y29376D01*
X56745Y29525D01*
X56783D01*
X56857Y29562D01*
X56968Y29599D01*
X57116Y29636D01*
X57523Y29747D01*
X58078Y29858D01*
X58708Y29969D01*
X59338Y30080D01*
X60041Y30154D01*
X60708Y30191D01*
X61448D01*
X61744Y30154D01*
X62078Y30117D01*
X62559Y30080D01*
X63078Y30006D01*
X63670Y29858D01*
X64300Y29710D01*
X65003Y29525D01*
X65744Y29265D01*
X66521Y28969D01*
X67299Y28599D01*
X68114Y28155D01*
X68891Y27673D01*
X69706Y27081D01*
X70484Y26414D01*
X70521Y26377D01*
X70558Y26340D01*
X70669Y26229D01*
X70780Y26081D01*
X71113Y25710D01*
X71483Y25266D01*
X71854Y24785D01*
X72224Y24303D01*
X72520Y23859D01*
X72705Y23489D01*
X72742Y23452D01*
X72779Y23341D01*
X72853Y23192D01*
X72965Y22970D01*
X73113Y22674D01*
X73261Y22341D01*
X73409Y21970D01*
X73594Y21526D01*
X73742Y21082D01*
X73890Y20563D01*
X74187Y19489D01*
X74372Y18304D01*
X74446Y17675D01*
Y17045D01*
Y16379D01*
Y16342D01*
Y16194D01*
Y16009D01*
X74409Y15712D01*
X74372Y15379D01*
X74298Y14972D01*
X74224Y14527D01*
X74112Y14009D01*
X74001Y13454D01*
X73816Y12861D01*
X73631Y12232D01*
X73372Y11602D01*
X73076Y10898D01*
X72742Y10195D01*
X72335Y9491D01*
X71891Y8788D01*
X71854Y8751D01*
X71817Y8677D01*
X71706Y8566D01*
X71557Y8417D01*
X71187Y8010D01*
X70743Y7529D01*
X70261Y7010D01*
X69743Y6529D01*
X69225Y6122D01*
X69002Y5974D01*
X68780Y5862D01*
X68743Y5825D01*
X68706Y5788D01*
X68558Y5677D01*
X68410Y5566D01*
X68151Y5381D01*
X67817Y5196D01*
X67410Y4974D01*
X66892Y4715D01*
X66855D01*
X66781Y4677D01*
X66558Y4566D01*
X66299Y4418D01*
X66225Y4381D01*
X66188Y4344D01*
X66373D01*
X66558Y4418D01*
X66892Y4529D01*
X67336Y4752D01*
X67892Y5048D01*
X68595Y5455D01*
X69002Y5751D01*
X69410Y6047D01*
X69854Y6381D01*
X70336Y6788D01*
X70372Y6825D01*
X70447Y6899D01*
X70558Y7010D01*
X70669Y7158D01*
X71039Y7566D01*
X71483Y8084D01*
X71965Y8677D01*
X72446Y9306D01*
X72853Y9936D01*
X73150Y10528D01*
X73187Y10565D01*
X73224Y10676D01*
X73298Y10824D01*
X73409Y11047D01*
X73520Y11343D01*
X73668Y11676D01*
X73816Y12046D01*
X73964Y12454D01*
X74112Y12935D01*
X74224Y13417D01*
X74483Y14490D01*
X74668Y15638D01*
X74742Y16231D01*
Y16823D01*
Y16897D01*
Y17045D01*
X74705Y17342D01*
X74668Y17712D01*
X74631Y18193D01*
X74520Y18712D01*
X74409Y19341D01*
X74261Y20008D01*
X74038Y20749D01*
X73779Y21489D01*
X73446Y22304D01*
X73039Y23118D01*
X72594Y23933D01*
X72076Y24785D01*
X71446Y25599D01*
X70743Y26414D01*
X70706Y26451D01*
X70632Y26525D01*
X70521Y26636D01*
X70336Y26784D01*
X70113Y26970D01*
X69817Y27192D01*
X69521Y27451D01*
X69187Y27710D01*
X68373Y28266D01*
X67484Y28821D01*
X66484Y29302D01*
X65411Y29747D01*
X65373D01*
X65299Y29784D01*
X65188Y29821D01*
X65003Y29858D01*
X64818Y29932D01*
X64559Y29969D01*
X64003Y30117D01*
X63374Y30265D01*
X62670Y30376D01*
X61930Y30450D01*
X61226Y30487D01*
D02*
G37*
G36*
X61078Y29969D02*
X60448D01*
X60263Y29932D01*
X60041D01*
X59745Y29895D01*
X59449Y29858D01*
X59078Y29784D01*
X58264Y29636D01*
X57301Y29376D01*
X56264Y29006D01*
X55153Y28525D01*
X55079Y28488D01*
X54857Y28377D01*
X54561Y28192D01*
X54116Y27932D01*
X53598Y27599D01*
X53043Y27155D01*
X52413Y26673D01*
X51746Y26081D01*
X51709Y26044D01*
X51635Y25970D01*
X51487Y25785D01*
X51302Y25599D01*
X51117Y25340D01*
X50858Y25007D01*
X50599Y24674D01*
X50302Y24266D01*
X50006Y23822D01*
X49710Y23341D01*
X49154Y22267D01*
X48636Y21082D01*
X48414Y20452D01*
X48229Y19786D01*
Y19749D01*
X48191Y19601D01*
X48155Y19341D01*
X48080Y19045D01*
X48043Y18638D01*
X47969Y18193D01*
X47895Y17675D01*
X47858Y17083D01*
Y17045D01*
Y16860D01*
X47895Y16601D01*
Y16268D01*
X47969Y15823D01*
X48043Y15342D01*
X48118Y14787D01*
X48266Y14157D01*
X48414Y13491D01*
X48636Y12824D01*
X48895Y12083D01*
X49191Y11343D01*
X49562Y10565D01*
X49969Y9825D01*
X50450Y9047D01*
X51006Y8306D01*
X51043Y8269D01*
X51117Y8195D01*
X51265Y8047D01*
X51450Y7862D01*
X51709Y7640D01*
X51969Y7381D01*
X52598Y6825D01*
X53302Y6233D01*
X54079Y5714D01*
X54450Y5455D01*
X54820Y5270D01*
X55190Y5085D01*
X55524Y4974D01*
X55746D01*
X55857Y4937D01*
X56042D01*
X56264Y4900D01*
X56560Y4863D01*
X56894Y4789D01*
X57301Y4752D01*
X57782Y4677D01*
X58338Y4566D01*
X58930Y4455D01*
X59671Y4344D01*
X60448Y4196D01*
X61337Y4011D01*
X62300Y3900D01*
X62559D01*
X62707Y3937D01*
X62929D01*
X63189Y3974D01*
X63781Y4048D01*
X64485Y4159D01*
X65225Y4381D01*
X66003Y4640D01*
X66744Y5011D01*
X66781Y5048D01*
X66929Y5122D01*
X67151Y5233D01*
X67447Y5381D01*
X67780Y5603D01*
X68188Y5862D01*
X68632Y6196D01*
X69113Y6566D01*
X69632Y6973D01*
X70150Y7455D01*
X70669Y8010D01*
X71187Y8603D01*
X71706Y9232D01*
X72187Y9936D01*
X72668Y10713D01*
X73076Y11528D01*
Y11565D01*
X73113Y11639D01*
X73187Y11787D01*
X73261Y11972D01*
X73335Y12232D01*
X73446Y12491D01*
X73557Y12824D01*
X73668Y13194D01*
X73853Y14046D01*
X74038Y14972D01*
X74187Y16009D01*
X74224Y17120D01*
Y17194D01*
Y17379D01*
X74187Y17712D01*
X74112Y18193D01*
X74038Y18749D01*
X73890Y19452D01*
X73705Y20267D01*
X73446Y21193D01*
Y21230D01*
X73409Y21304D01*
X73335Y21415D01*
X73298Y21600D01*
X73187Y21785D01*
X73076Y22007D01*
X72816Y22563D01*
X72483Y23192D01*
X72076Y23859D01*
X71631Y24525D01*
X71113Y25192D01*
X71076Y25229D01*
X71039Y25303D01*
X70928Y25414D01*
X70780Y25525D01*
X70410Y25933D01*
X69965Y26377D01*
X69410Y26858D01*
X68817Y27340D01*
X68225Y27784D01*
X67632Y28155D01*
X67595Y28192D01*
X67484Y28229D01*
X67299Y28340D01*
X67040Y28451D01*
X66744Y28562D01*
X66410Y28747D01*
X66003Y28895D01*
X65559Y29080D01*
X65077Y29228D01*
X64559Y29414D01*
X63448Y29673D01*
X62263Y29895D01*
X61671Y29932D01*
X61078Y29969D01*
D02*
G37*
G36*
X47414Y13972D02*
X47377D01*
Y4492D01*
X47451Y4418D01*
X47488D01*
X47636Y4455D01*
X47821Y4492D01*
X48080Y4529D01*
X48377Y4566D01*
X48747Y4640D01*
X49154Y4677D01*
X49599Y4752D01*
X50524Y4863D01*
X51450Y4974D01*
X52376Y5048D01*
X52783Y5085D01*
X53339D01*
Y5122D01*
X53302Y5159D01*
X53191Y5233D01*
X53005Y5381D01*
X52746Y5566D01*
X52450Y5825D01*
X52080Y6122D01*
X51709Y6455D01*
X51302Y6862D01*
X50858Y7344D01*
X50413Y7825D01*
X49969Y8417D01*
X49525Y9010D01*
X49080Y9676D01*
X48636Y10380D01*
X48266Y11158D01*
X47895Y11972D01*
Y12009D01*
X47821Y12157D01*
X47784Y12380D01*
X47710Y12639D01*
X47599Y12972D01*
X47525Y13305D01*
X47414Y13972D01*
D02*
G37*
G36*
X74742D02*
X74668D01*
Y13935D01*
X74631Y13824D01*
X74594Y13676D01*
X74557Y13454D01*
X74483Y13157D01*
X74372Y12861D01*
X74261Y12491D01*
X74150Y12083D01*
X73779Y11195D01*
X73335Y10195D01*
X72742Y9195D01*
X72039Y8158D01*
Y8121D01*
X71965Y8084D01*
X71780Y7862D01*
X71520Y7529D01*
X71150Y7158D01*
X70706Y6714D01*
X70261Y6270D01*
X69743Y5862D01*
X69262Y5492D01*
X67854Y4566D01*
X68077D01*
X68225Y4603D01*
X68373D01*
X68595Y4640D01*
X68854D01*
X69410Y4715D01*
X70002Y4752D01*
X70632Y4789D01*
X71224Y4826D01*
X71706D01*
X74668Y4715D01*
X74742Y4752D01*
Y13972D01*
D02*
G37*
%LPD*%
G36*
X61744Y25822D02*
X62078Y25785D01*
X62485Y25710D01*
X62892Y25599D01*
X63374Y25488D01*
X63892Y25340D01*
X64411Y25155D01*
X64966Y24896D01*
X65522Y24637D01*
X66077Y24303D01*
X66669Y23896D01*
X67188Y23452D01*
X67743Y22933D01*
X67780Y22896D01*
X67854Y22822D01*
X67966Y22674D01*
X68114Y22489D01*
X68299Y22230D01*
X68484Y21933D01*
X68706Y21600D01*
X68928Y21193D01*
X69151Y20786D01*
X69373Y20304D01*
X69743Y19267D01*
X69891Y18712D01*
X70002Y18082D01*
X70076Y17490D01*
X70113Y16823D01*
Y16786D01*
Y16675D01*
Y16490D01*
X70076Y16231D01*
X70039Y15935D01*
X70002Y15564D01*
X69928Y15194D01*
X69817Y14750D01*
X69558Y13787D01*
X69373Y13268D01*
X69113Y12750D01*
X68854Y12232D01*
X68558Y11713D01*
X68188Y11195D01*
X67780Y10676D01*
X67706Y10602D01*
X67521Y10417D01*
X67188Y10158D01*
X66781Y9788D01*
X66262Y9417D01*
X65707Y9010D01*
X65040Y8640D01*
X64337Y8306D01*
X64300D01*
X64262Y8269D01*
X64040Y8232D01*
X63707Y8121D01*
X63300Y8047D01*
X62818Y7936D01*
X62337Y7825D01*
X61856Y7788D01*
X61411Y7751D01*
X60486D01*
X60263Y7788D01*
X59967Y7825D01*
X59634Y7899D01*
X59227Y7973D01*
X58819Y8084D01*
X57856Y8380D01*
X57375Y8566D01*
X56819Y8825D01*
X56301Y9121D01*
X55746Y9454D01*
X55227Y9825D01*
X54672Y10269D01*
X53783Y11306D01*
X53746Y11343D01*
X53709Y11417D01*
X53635Y11565D01*
X53524Y11750D01*
X53376Y11972D01*
X53228Y12269D01*
X53079Y12602D01*
X52894Y12935D01*
X52561Y13787D01*
X52302Y14713D01*
X52080Y15749D01*
X52043Y16305D01*
X52006Y16860D01*
Y16897D01*
Y17083D01*
X52043Y17305D01*
X52080Y17638D01*
X52117Y18045D01*
X52228Y18490D01*
X52339Y19008D01*
X52524Y19564D01*
X52746Y20156D01*
X53043Y20786D01*
X53376Y21415D01*
X53783Y22045D01*
X54264Y22674D01*
X54820Y23303D01*
X55449Y23896D01*
X56190Y24452D01*
X56227D01*
X56301Y24525D01*
X56412Y24600D01*
X56597Y24674D01*
X56783Y24785D01*
X57042Y24896D01*
X57634Y25155D01*
X58338Y25414D01*
X59152Y25636D01*
X60004Y25785D01*
X60893Y25859D01*
X61485D01*
X61744Y25822D01*
D02*
G37*
%LPC*%
G36*
X61189Y25525D02*
X60263D01*
X60004Y25488D01*
X59634Y25414D01*
X59189Y25303D01*
X58634Y25155D01*
X58004Y24933D01*
X57264Y24637D01*
X57190Y24600D01*
X57042Y24525D01*
X56819Y24377D01*
X56486Y24192D01*
X55820Y23711D01*
X55486Y23452D01*
X55153Y23192D01*
X55116Y23155D01*
X55079Y23118D01*
X54968Y23007D01*
X54857Y22896D01*
X54561Y22526D01*
X54190Y22045D01*
X53783Y21489D01*
X53376Y20822D01*
X53005Y20156D01*
X52709Y19415D01*
Y19341D01*
X52635Y19156D01*
X52598Y18897D01*
X52524Y18564D01*
X52413Y17823D01*
X52339Y17490D01*
Y17194D01*
Y16527D01*
Y16490D01*
Y16379D01*
Y16231D01*
X52376Y16009D01*
X52413Y15749D01*
X52487Y15453D01*
X52561Y15083D01*
X52635Y14713D01*
X52931Y13824D01*
X53117Y13342D01*
X53376Y12861D01*
X53635Y12343D01*
X53968Y11824D01*
X54339Y11269D01*
X54783Y10750D01*
X54820Y10713D01*
X54894Y10639D01*
X55042Y10528D01*
X55227Y10380D01*
X55449Y10232D01*
X55709Y10010D01*
X56338Y9602D01*
X57079Y9121D01*
X57893Y8714D01*
X58745Y8380D01*
X59152Y8269D01*
X59597Y8195D01*
X59708D01*
X59819Y8158D01*
X59967D01*
X60300Y8121D01*
X60671Y8084D01*
X61152D01*
X61374Y8121D01*
X61708Y8158D01*
X62078Y8195D01*
X62485Y8269D01*
X63003Y8417D01*
X63522Y8566D01*
X64077Y8751D01*
X64670Y9010D01*
X65262Y9343D01*
X65892Y9676D01*
X66484Y10121D01*
X67077Y10639D01*
X67669Y11232D01*
X68225Y11898D01*
X68262Y11935D01*
X68299Y12009D01*
X68373Y12121D01*
X68484Y12306D01*
X68595Y12528D01*
X68706Y12787D01*
X69002Y13379D01*
X69299Y14120D01*
X69521Y14972D01*
X69706Y15860D01*
X69780Y16823D01*
Y16860D01*
Y16971D01*
Y17156D01*
X69743Y17379D01*
X69706Y17638D01*
X69669Y17971D01*
X69595Y18341D01*
X69484Y18749D01*
X69225Y19675D01*
X69039Y20156D01*
X68780Y20637D01*
X68521Y21156D01*
X68225Y21674D01*
X67854Y22193D01*
X67447Y22674D01*
X67373Y22748D01*
X67188Y22933D01*
X66929Y23155D01*
X66595Y23452D01*
X66225Y23785D01*
X65855Y24044D01*
X65484Y24266D01*
X65188Y24414D01*
X65151D01*
X65114Y24452D01*
X65003Y24525D01*
X64855Y24600D01*
X64485Y24785D01*
X63966Y24970D01*
X63374Y25192D01*
X62707Y25340D01*
X61967Y25488D01*
X61189Y25525D01*
D02*
G37*
%LPD*%
D39*
X38764Y26361D02*
Y22363D01*
Y23696D01*
X36098Y26361D01*
X38097Y24362D01*
X36098Y22363D01*
X34765Y25028D02*
Y23029D01*
X34099Y22363D01*
X33432Y23029D01*
X32766Y22363D01*
X32099Y23029D01*
Y25028D01*
X30100D02*
X28767D01*
X28101Y24362D01*
Y22363D01*
X30100D01*
X30766Y23029D01*
X30100Y23696D01*
X28101D01*
X26768Y26361D02*
Y22363D01*
Y24362D01*
X26101Y25028D01*
X24768D01*
X24102Y24362D01*
Y22363D01*
X22103D02*
X20770D01*
X20103Y23029D01*
Y24362D01*
X20770Y25028D01*
X22103D01*
X22769Y24362D01*
Y23029D01*
X22103Y22363D01*
X18104D02*
X16771D01*
X16104Y23029D01*
Y24362D01*
X16771Y25028D01*
X18104D01*
X18770Y24362D01*
Y23029D01*
X18104Y22363D01*
X38764Y18496D02*
X36098D01*
X37431D01*
Y14498D01*
X34765Y17164D02*
Y15164D01*
X34099Y14498D01*
X33432Y15164D01*
X32766Y14498D01*
X32099Y15164D01*
Y17164D01*
X30766Y14498D02*
X29434D01*
X30100D01*
Y17164D01*
X30766D01*
X27434D02*
X24768D01*
X27434Y14498D01*
X24768D01*
X23435Y17164D02*
X20770D01*
X23435Y14498D01*
X20770D01*
X18770Y17830D02*
Y17164D01*
X19437D01*
X18104D01*
X18770D01*
Y15164D01*
X18104Y14498D01*
X16104Y17830D02*
X15438Y18496D01*
X14105D01*
X13439Y17830D01*
Y17164D01*
X14105Y16497D01*
X14772D01*
X14105D01*
X13439Y15831D01*
Y15164D01*
X14105Y14498D01*
X15438D01*
X16104Y15164D01*
X12106Y17164D02*
Y14498D01*
Y15831D01*
X11439Y16497D01*
X10773Y17164D01*
X10106D01*
X8107Y15831D02*
Y19163D01*
Y15164D02*
Y14498D01*
X38764Y7299D02*
X37431D01*
X38097D01*
Y11298D01*
X38764Y10632D01*
X35432Y7299D02*
X34099D01*
X34765D01*
Y11298D01*
X35432Y10632D01*
X32099Y7299D02*
Y7966D01*
X31433D01*
Y7299D01*
X32099D01*
X26101D02*
X28767D01*
X26101Y9965D01*
Y10632D01*
X26768Y11298D01*
X28100D01*
X28767Y10632D01*
X24768D02*
X24102Y11298D01*
X22769D01*
X22103Y10632D01*
Y7966D01*
X22769Y7299D01*
X24102D01*
X24768Y7966D01*
Y10632D01*
X18104Y7299D02*
X20770D01*
X18104Y9965D01*
Y10632D01*
X18770Y11298D01*
X20103D01*
X20770Y10632D01*
X16771Y7299D02*
X15438D01*
X16104D01*
Y11298D01*
X16771Y10632D01*
D58*
X155074Y132874D02*
Y135207D01*
Y134040D01*
X151575D01*
Y136373D02*
X155074D01*
Y138122D01*
X154490Y138706D01*
X153324D01*
X152741Y138122D01*
Y136373D01*
X151575Y139872D02*
Y141038D01*
Y140455D01*
X155074D01*
X154490Y139872D01*
X221457Y94050D02*
X219124D01*
X220290D01*
Y90551D01*
X217958D02*
Y94050D01*
X216208D01*
X215625Y93467D01*
Y92301D01*
X216208Y91717D01*
X217958D01*
X212126Y90551D02*
X214459D01*
X212126Y92884D01*
Y93467D01*
X212709Y94050D01*
X213876D01*
X214459Y93467D01*
X221457Y101924D02*
X219124D01*
X220290D01*
Y98425D01*
X217958D02*
Y101924D01*
X216208D01*
X215625Y101341D01*
Y100175D01*
X216208Y99591D01*
X217958D01*
X214459Y101341D02*
X213876Y101924D01*
X212709D01*
X212126Y101341D01*
Y100758D01*
X212709Y100175D01*
X213293D01*
X212709D01*
X212126Y99591D01*
Y99008D01*
X212709Y98425D01*
X213876D01*
X214459Y99008D01*
X225394Y170822D02*
X223061D01*
X224227D01*
Y167323D01*
X221895D02*
Y170822D01*
X220145D01*
X219562Y170239D01*
Y169072D01*
X220145Y168489D01*
X221895D01*
X216647Y167323D02*
Y170822D01*
X218396Y169072D01*
X216063D01*
X200787Y170822D02*
X198455D01*
X199621D01*
Y167323D01*
X197289D02*
Y170822D01*
X195539D01*
X194956Y170238D01*
Y169072D01*
X195539Y168489D01*
X197289D01*
X191457Y170822D02*
X193790D01*
Y169072D01*
X192623Y169655D01*
X192040D01*
X191457Y169072D01*
Y167906D01*
X192040Y167323D01*
X193207D01*
X193790Y167906D01*
X234252Y147200D02*
X231919D01*
X233086D01*
Y143701D01*
X230753D02*
Y147200D01*
X229004D01*
X228420Y146616D01*
Y145450D01*
X229004Y144867D01*
X230753D01*
X227254Y147200D02*
X224922D01*
Y146616D01*
X227254Y144284D01*
Y143701D01*
X234252Y162948D02*
X231919D01*
X233086D01*
Y159449D01*
X230753D02*
Y162948D01*
X229004D01*
X228420Y162364D01*
Y161198D01*
X229004Y160615D01*
X230753D01*
X227254Y162364D02*
X226671Y162948D01*
X225505D01*
X224922Y162364D01*
Y161781D01*
X225505Y161198D01*
X224922Y160615D01*
Y160032D01*
X225505Y159449D01*
X226671D01*
X227254Y160032D01*
Y160615D01*
X226671Y161198D01*
X227254Y161781D01*
Y162364D01*
X226671Y161198D02*
X225505D01*
X208661Y139326D02*
X206329D01*
X207495D01*
Y135827D01*
X205163D02*
Y139326D01*
X203413D01*
X202830Y138742D01*
Y137576D01*
X203413Y136993D01*
X205163D01*
X201664Y136410D02*
X201080Y135827D01*
X199914D01*
X199331Y136410D01*
Y138742D01*
X199914Y139326D01*
X201080D01*
X201664Y138742D01*
Y138159D01*
X201080Y137576D01*
X199331D01*
X221457Y109798D02*
X219124D01*
X220290D01*
Y106299D01*
X217958D02*
Y109798D01*
X216208D01*
X215625Y109215D01*
Y108049D01*
X216208Y107466D01*
X217958D01*
X214459Y106299D02*
X213293D01*
X213876D01*
Y109798D01*
X214459Y109215D01*
X211543D02*
X210960Y109798D01*
X209794D01*
X209211Y109215D01*
Y106882D01*
X209794Y106299D01*
X210960D01*
X211543Y106882D01*
Y109215D01*
X227362Y155074D02*
X225030D01*
X226196D01*
Y151575D01*
X223863D02*
Y155074D01*
X222114D01*
X221531Y154490D01*
Y153324D01*
X222114Y152741D01*
X223863D01*
X220364Y151575D02*
X219198D01*
X219781D01*
Y155074D01*
X220364Y154490D01*
X217449Y151575D02*
X216283D01*
X216866D01*
Y155074D01*
X217449Y154490D01*
X221457Y117672D02*
X219124D01*
X220290D01*
Y114173D01*
X217958D02*
Y117672D01*
X216208D01*
X215625Y117089D01*
Y115923D01*
X216208Y115340D01*
X217958D01*
X214459Y114173D02*
X213293D01*
X213876D01*
Y117672D01*
X214459Y117089D01*
X211543D02*
X210960Y117672D01*
X209794D01*
X209211Y117089D01*
Y116506D01*
X209794Y115923D01*
X210377D01*
X209794D01*
X209211Y115340D01*
Y114756D01*
X209794Y114173D01*
X210960D01*
X211543Y114756D01*
X199803Y162948D02*
X197471D01*
X198637D01*
Y159449D01*
X196304D02*
Y162948D01*
X194555D01*
X193972Y162364D01*
Y161198D01*
X194555Y160615D01*
X196304D01*
X192805Y159449D02*
X191639D01*
X192222D01*
Y162948D01*
X192805Y162364D01*
X188140Y159449D02*
Y162948D01*
X189890Y161198D01*
X187557D01*
X162948Y132874D02*
Y135207D01*
Y134040D01*
X159449D01*
Y136373D02*
X162948D01*
Y138122D01*
X162364Y138706D01*
X161198D01*
X160615Y138122D01*
Y136373D01*
X159449Y139872D02*
Y141038D01*
Y140455D01*
X162948D01*
X162364Y139872D01*
X162948Y142788D02*
Y145120D01*
X162364D01*
X160032Y142788D01*
X159449D01*
M02*
