M48
;Layer_Color=9474304
;FILE_FORMAT=2:5
INCH,LZ
;TYPE=PLATED
T1F00S00C0.01300
T2F00S00C0.01575
T4F00S00C0.02756
T5F00S00C0.04331
%
T01
X020374Y0010913
X0215551Y0011811
X020374Y0036417
X0211614Y0050197
X0215551Y0048228
X0234449Y0054528
X0251969Y005315
X0193962Y0056713
X0165354Y0048228
X0153543Y0036417
X0153543Y0010827
X0165354Y0011811
X0111221Y0016819
X0113189Y002863
X0081693
X0079724Y0016819
X0048228Y0016819
X0049213Y002863
X0019291
X0017717Y0016819
Y0080709
X0019685Y0092323
X0051181Y0092323
X0049213Y0080709
X0080709
Y0092323
X0112205Y0092535
Y0080709
Y0144685
X0080709Y0144685
X0049213Y0144685
X0017717Y0144685
X0018701Y0156496
X0167323Y0133858
Y0129331
Y0125
X0168504Y0118307
X0169291Y0113583
X0183071Y0110433
Y0104134
X0186024Y0097441
Y0116142
Y0121063
X0187008Y0127756
Y013248
X0183071Y013248
X0182087Y0135827
X017815
X0174213Y0135827
X0185827Y0137205
X0183071Y0125984
X0198819Y0126969
X0202461Y0126279
X0205709Y013563
X0209449Y0132283
X0214567Y0132677
X0218504Y0132608
X0221457Y0127756
X0226772Y0144882
X023308Y0144803
X0237992
X0237205Y015376
X024147Y0157402
X025315Y0154646
Y0160551
X0245276Y0169291
X0226772Y0168898
X0204724Y0169291
X0206299Y0165354
X0209646Y0163386
X0204921Y0142323
X0198819Y0145669
X0194882Y0144685
X0182087Y0147638
X0176181
X018563Y0151575
X0191929Y0080709
X0198228Y0082526
X0204376Y0086266
X0191994Y0063835
X0253937Y0062992
X0257874Y0066142
X0261811Y0062992
X0269835Y0063976
X0236221Y0090551
X0234055Y0111221
X0252052Y0124016
X0265453Y0124016
X0270669Y0140571
X0266535Y0144803
X0265551Y0166457
X0272441Y0166457
T02
X0248425Y003437
X0251575Y003437
X0254724
X025315Y0037126
X025
X024685
X0256299
X0259449
X0262598
X0265748
X0268898
X0267323Y003437
X0264173Y003437
X0261024Y003437
T04
X0131358Y0160886
Y0165886
X0136358
Y0160886
X0147106
Y0165886
X0152106
Y0160886
X0263035Y0108209
Y0103209
X0268035
Y0108209
T05
X0238124Y0079724
X0248124
M30
