G04 Layer_Physical_Order=1*
G04 Layer_Color=255*
%FSLAX25Y25*%
%MOIN*%
G70*
G01*
G75*
%ADD10R,0.03543X0.03150*%
%ADD11R,0.01968X0.01968*%
%ADD12R,0.01968X0.01968*%
%ADD13C,0.00965*%
%ADD14R,0.03937X0.01181*%
%ADD15R,0.05118X0.06496*%
%ADD16C,0.00600*%
%ADD17C,0.01000*%
%ADD18C,0.01500*%
%ADD19C,0.05905*%
%ADD20C,0.07874*%
%ADD21C,0.02600*%
G36*
X41339Y65859D02*
Y65854D01*
X42079Y65756D01*
X42769Y65470D01*
X43362Y65016D01*
X43817Y64423D01*
X44103Y63733D01*
X44200Y62992D01*
X44205D01*
Y3937D01*
X44200D01*
X44103Y3196D01*
X43817Y2506D01*
X43362Y1914D01*
X42769Y1459D01*
X42079Y1173D01*
X41339Y1075D01*
Y1071D01*
X41339Y1071D01*
X3937D01*
Y1075D01*
X3196Y1173D01*
X2506Y1459D01*
X1914Y1914D01*
X1459Y2506D01*
X1173Y3196D01*
X1075Y3937D01*
X1071D01*
Y62992D01*
X1075D01*
X1173Y63733D01*
X1459Y64423D01*
X1914Y65016D01*
X2506Y65470D01*
X3196Y65756D01*
X3937Y65854D01*
Y65859D01*
X41339D01*
X41339Y65859D01*
D02*
G37*
%LPC*%
G36*
X38986Y20482D02*
X36427D01*
Y17234D01*
X38986D01*
Y20482D01*
D02*
G37*
G36*
X21447Y20679D02*
X19676D01*
Y19104D01*
X21447D01*
Y20679D01*
D02*
G37*
G36*
X24419D02*
X22647D01*
Y19104D01*
X24419D01*
Y20679D01*
D02*
G37*
G36*
X21447Y17904D02*
X19676D01*
Y16329D01*
X21447D01*
Y17904D01*
D02*
G37*
G36*
X24419D02*
X22647D01*
Y16329D01*
X24419D01*
Y17904D01*
D02*
G37*
G36*
X35227Y20482D02*
X32668D01*
Y17234D01*
X35227D01*
Y20482D01*
D02*
G37*
G36*
X30915Y28750D02*
X28947D01*
Y28159D01*
X30915D01*
Y28750D01*
D02*
G37*
G36*
X27746D02*
X25778D01*
Y28159D01*
X27746D01*
Y28750D01*
D02*
G37*
G36*
X30915Y26959D02*
X28947D01*
Y26368D01*
X30915D01*
Y26959D01*
D02*
G37*
G36*
X27746D02*
X25778D01*
Y26368D01*
X27746D01*
Y26959D01*
D02*
G37*
G36*
X16136Y20778D02*
X15152D01*
Y19794D01*
X16136D01*
Y20778D01*
D02*
G37*
G36*
X18320D02*
X17336D01*
Y19794D01*
X18320D01*
Y20778D01*
D02*
G37*
G36*
X9843Y47491D02*
X8811Y47355D01*
X7849Y46957D01*
X7023Y46323D01*
X6390Y45497D01*
X5991Y44536D01*
X5856Y43504D01*
X5991Y42472D01*
X6390Y41510D01*
X7023Y40685D01*
X7111Y40617D01*
X7378Y40349D01*
X7649Y40060D01*
X8102Y39520D01*
X8256Y39307D01*
X8377Y39116D01*
X8458Y38962D01*
X8503Y38852D01*
X8517Y38800D01*
Y38287D01*
X8618Y37780D01*
X8905Y37350D01*
X11491Y34765D01*
X11355Y34194D01*
X8905Y31744D01*
X8618Y31314D01*
X8517Y30807D01*
Y28130D01*
X8503Y28077D01*
X8458Y27967D01*
X8377Y27813D01*
X8256Y27622D01*
X8108Y27417D01*
X7365Y26567D01*
X7111Y26312D01*
X7023Y26244D01*
X6390Y25419D01*
X5991Y24457D01*
X5856Y23425D01*
X5991Y22393D01*
X6390Y21432D01*
X7023Y20606D01*
X7849Y19973D01*
X8811Y19574D01*
X9843Y19438D01*
X10874Y19574D01*
X11836Y19973D01*
X12662Y20606D01*
X13295Y21432D01*
X13693Y22393D01*
X13829Y23425D01*
X13693Y24457D01*
X13295Y25419D01*
X12662Y26244D01*
X12574Y26312D01*
X12307Y26580D01*
X12036Y26869D01*
X11583Y27409D01*
X11429Y27622D01*
X11308Y27813D01*
X11227Y27967D01*
X11182Y28077D01*
X11168Y28130D01*
Y30258D01*
X12931Y32021D01*
X15343D01*
X15753Y31521D01*
X15725Y31378D01*
X15840Y30800D01*
X15901Y30708D01*
X15911Y30558D01*
Y29695D01*
X15799Y29583D01*
X15512Y29153D01*
X15411Y28646D01*
Y27299D01*
X14752D01*
Y23331D01*
X14834D01*
X15152Y22962D01*
X15152Y22831D01*
Y21978D01*
X16736D01*
X18320D01*
Y22831D01*
X18320Y22962D01*
X18638Y23331D01*
X18721D01*
Y27299D01*
X18062D01*
Y28097D01*
X18173Y28208D01*
X18180Y28218D01*
X18677Y28267D01*
X19116Y27828D01*
X19276Y27378D01*
X19276D01*
X19276Y27378D01*
Y22228D01*
X24819D01*
Y27378D01*
X23206D01*
X22985Y27709D01*
X21309Y29384D01*
X21474Y29926D01*
X21752Y29982D01*
X21843Y30043D01*
X21993Y30053D01*
X24488D01*
X24878Y30130D01*
X25378Y29906D01*
Y29906D01*
X26352D01*
X26390Y29898D01*
X26428Y29906D01*
X26492D01*
X26505Y29904D01*
X26508Y29906D01*
X31315D01*
Y33087D01*
X26508D01*
X26505Y33088D01*
X26492Y33087D01*
X26428D01*
X26390Y33094D01*
X26352Y33087D01*
X25378D01*
Y32822D01*
X24606D01*
X24569Y32814D01*
X24323Y33275D01*
X24882Y33834D01*
X25378Y33843D01*
Y33843D01*
X26352D01*
X26390Y33835D01*
X26428Y33843D01*
X26492D01*
X26505Y33841D01*
X26508Y33843D01*
X31315D01*
Y37024D01*
X26508D01*
X26505Y37025D01*
X26492Y37024D01*
X26428D01*
X26390Y37031D01*
X26352Y37024D01*
X25378D01*
Y36759D01*
X24606D01*
X24099Y36658D01*
X23669Y36370D01*
X23115Y35816D01*
X22654Y36062D01*
X22703Y36307D01*
Y38831D01*
X23189D01*
Y38901D01*
X23689Y39109D01*
X24509Y38289D01*
X25005Y37957D01*
X25378Y37883D01*
Y37780D01*
X26352D01*
X26390Y37772D01*
X26428Y37780D01*
X26464D01*
X26491Y37777D01*
X26499Y37780D01*
X31315D01*
Y40961D01*
X26499D01*
X26491Y40963D01*
X26238Y41209D01*
X26136Y41372D01*
Y44291D01*
X26019Y44877D01*
X25688Y45373D01*
X24664Y46397D01*
X24168Y46728D01*
X23582Y46845D01*
X23189D01*
Y47300D01*
X22215D01*
X22177Y47307D01*
X22139Y47300D01*
X22080D01*
X22064Y47301D01*
X22060Y47300D01*
X19221D01*
Y47217D01*
X18852Y46900D01*
X18721Y46900D01*
X17868D01*
Y45315D01*
Y43731D01*
X18721D01*
X18852Y43731D01*
X19221Y43414D01*
Y43331D01*
X19418D01*
X19421Y43292D01*
Y42800D01*
X19221D01*
Y42717D01*
X18852Y42400D01*
X18721Y42400D01*
X17868D01*
Y40815D01*
Y39231D01*
X18721D01*
X18852Y39231D01*
X19221Y38914D01*
Y38831D01*
X19644D01*
Y36841D01*
X19205Y36418D01*
X18782Y36334D01*
X18475Y36129D01*
X18305Y36384D01*
X17815Y36711D01*
X17236Y36826D01*
X16658Y36711D01*
X16566Y36650D01*
X16416Y36640D01*
X13364D01*
X11176Y38829D01*
X11182Y38852D01*
X11227Y38962D01*
X11308Y39116D01*
X11429Y39307D01*
X11577Y39512D01*
X12320Y40362D01*
X12574Y40617D01*
X12662Y40685D01*
X13295Y41510D01*
X13693Y42472D01*
X13829Y43504D01*
X13693Y44536D01*
X13295Y45497D01*
X12662Y46323D01*
X11836Y46957D01*
X10874Y47355D01*
X9843Y47491D01*
D02*
G37*
G36*
X38986Y49695D02*
X36427D01*
Y46447D01*
X38986D01*
Y49695D01*
D02*
G37*
G36*
X35227D02*
X32668D01*
Y46447D01*
X35227D01*
Y49695D01*
D02*
G37*
G36*
X16668Y46900D02*
X15684D01*
Y45915D01*
X16668D01*
Y46900D01*
D02*
G37*
G36*
X9843Y62066D02*
X8554Y61897D01*
X7353Y61399D01*
X6321Y60608D01*
X5530Y59576D01*
X5033Y58375D01*
X4863Y57087D01*
X5033Y55798D01*
X5530Y54597D01*
X6321Y53566D01*
X7353Y52774D01*
X8554Y52277D01*
X9843Y52107D01*
X11131Y52277D01*
X12332Y52774D01*
X13364Y53566D01*
X14155Y54597D01*
X14652Y55798D01*
X14822Y57087D01*
X14652Y58375D01*
X14155Y59576D01*
X13364Y60608D01*
X12332Y61399D01*
X11131Y61897D01*
X9843Y62066D01*
D02*
G37*
G36*
X38986Y54143D02*
X36427D01*
Y50895D01*
X38986D01*
Y54143D01*
D02*
G37*
G36*
X35227D02*
X32668D01*
Y50895D01*
X35227D01*
Y54143D01*
D02*
G37*
G36*
X35227Y16034D02*
X32668D01*
Y12786D01*
X35227D01*
Y16034D01*
D02*
G37*
G36*
X9843Y14822D02*
X8554Y14652D01*
X7353Y14155D01*
X6321Y13364D01*
X5530Y12332D01*
X5033Y11131D01*
X4863Y9843D01*
X5033Y8554D01*
X5530Y7353D01*
X6321Y6321D01*
X7353Y5530D01*
X8554Y5033D01*
X9843Y4863D01*
X11131Y5033D01*
X12332Y5530D01*
X13364Y6321D01*
X14155Y7353D01*
X14652Y8554D01*
X14822Y9843D01*
X14652Y11131D01*
X14155Y12332D01*
X13364Y13364D01*
X12332Y14155D01*
X11131Y14652D01*
X9843Y14822D01*
D02*
G37*
G36*
X16668Y40215D02*
X15684D01*
Y39231D01*
X16668D01*
Y40215D01*
D02*
G37*
G36*
Y44715D02*
X15684D01*
Y43731D01*
X16668D01*
Y44715D01*
D02*
G37*
G36*
Y42400D02*
X15684D01*
Y41415D01*
X16668D01*
Y42400D01*
D02*
G37*
G36*
X38986Y16034D02*
X36427D01*
Y12786D01*
X38986D01*
Y16034D01*
D02*
G37*
%LPD*%
G36*
X10160Y27952D02*
X10213Y27752D01*
X10301Y27536D01*
X10425Y27301D01*
X10584Y27050D01*
X10779Y26781D01*
X11273Y26192D01*
X11574Y25872D01*
X11909Y25534D01*
X7776D01*
X8111Y25872D01*
X8906Y26781D01*
X9101Y27050D01*
X9260Y27301D01*
X9384Y27536D01*
X9472Y27752D01*
X9525Y27952D01*
X9543Y28134D01*
X10142D01*
X10160Y27952D01*
D02*
G37*
G36*
X17039Y26771D02*
X17048Y26667D01*
X17063Y26575D01*
X17084Y26496D01*
X17111Y26428D01*
X17144Y26373D01*
X17183Y26330D01*
X17228Y26300D01*
X17279Y26281D01*
X17336Y26275D01*
X16136D01*
X16193Y26281D01*
X16244Y26300D01*
X16289Y26330D01*
X16328Y26373D01*
X16361Y26428D01*
X16388Y26496D01*
X16409Y26575D01*
X16424Y26667D01*
X16433Y26771D01*
X16436Y26887D01*
X17036D01*
X17039Y26771D01*
D02*
G37*
G36*
X22348Y26695D02*
X22364Y26512D01*
X22374Y26467D01*
X22385Y26431D01*
X22399Y26403D01*
X22415Y26382D01*
X22433Y26370D01*
X22453Y26366D01*
X21642D01*
X21662Y26370D01*
X21680Y26382D01*
X21695Y26403D01*
X21709Y26431D01*
X21721Y26467D01*
X21730Y26512D01*
X21738Y26565D01*
X21743Y26626D01*
X21747Y26772D01*
X22347D01*
X22348Y26695D01*
D02*
G37*
G36*
X21474Y36182D02*
X21486Y36002D01*
X21570D01*
X21551Y35973D01*
X21535Y35935D01*
X21520Y35888D01*
X21508Y35832D01*
X21501Y35790D01*
X21502Y35770D01*
X21513Y35716D01*
X21525Y35671D01*
X21539Y35636D01*
X21554Y35611D01*
X21482D01*
X21474Y35423D01*
X21473Y35315D01*
X20873D01*
X20872Y35423D01*
X20860Y35611D01*
X20792D01*
X20808Y35636D01*
X20821Y35671D01*
X20834Y35716D01*
X20844Y35770D01*
X20846Y35785D01*
X20839Y35832D01*
X20826Y35888D01*
X20811Y35935D01*
X20795Y35973D01*
X20777Y36002D01*
X20866D01*
X20873Y36293D01*
X21473D01*
X21474Y36182D01*
D02*
G37*
G36*
X16934Y34939D02*
X16910Y34954D01*
X16877Y34966D01*
X16834Y34978D01*
X16781Y34988D01*
X16646Y35003D01*
X16472Y35012D01*
X16259Y35015D01*
Y35615D01*
X16370Y35616D01*
X16781Y35642D01*
X16834Y35652D01*
X16877Y35664D01*
X16910Y35676D01*
X16934Y35691D01*
Y34939D01*
D02*
G37*
G36*
X26390Y34855D02*
X26384Y34907D01*
X26366Y34955D01*
X26336Y34997D01*
X26294Y35033D01*
X26240Y35063D01*
X26174Y35089D01*
X26096Y35108D01*
X26006Y35122D01*
X25904Y35130D01*
X25790Y35133D01*
Y35733D01*
X25904Y35736D01*
X26006Y35744D01*
X26096Y35758D01*
X26174Y35778D01*
X26240Y35803D01*
X26294Y35833D01*
X26336Y35870D01*
X26366Y35911D01*
X26384Y35959D01*
X26390Y36012D01*
Y34855D01*
D02*
G37*
G36*
Y38791D02*
X26382Y38807D01*
X26358Y38820D01*
X26318Y38832D01*
X26262Y38842D01*
X26190Y38851D01*
X25998Y38863D01*
X25591Y38870D01*
Y39870D01*
X25742Y39871D01*
X26318Y39909D01*
X26358Y39920D01*
X26382Y39934D01*
X26390Y39949D01*
Y38791D01*
D02*
G37*
G36*
X22187Y46198D02*
X22217Y46118D01*
X22267Y46047D01*
X22337Y45985D01*
X22427Y45933D01*
X22537Y45891D01*
X22667Y45858D01*
X22817Y45834D01*
X22987Y45820D01*
X23130Y45816D01*
X23264Y45815D01*
Y44815D01*
X22974Y44809D01*
X22817Y44796D01*
X22667Y44773D01*
X22537Y44740D01*
X22427Y44697D01*
X22337Y44645D01*
X22267Y44584D01*
X22217Y44513D01*
X22187Y44433D01*
X22177Y44343D01*
X22135Y44328D01*
X22097Y44283D01*
X22064Y44208D01*
X22035Y44103D01*
X22011Y43968D01*
X21991Y43803D01*
X21964Y43383D01*
X21958Y42998D01*
X22011Y42163D01*
X22035Y42028D01*
X22064Y41923D01*
X22097Y41848D01*
X22135Y41803D01*
X22177Y41788D01*
X20233D01*
X20275Y41803D01*
X20313Y41848D01*
X20346Y41923D01*
X20375Y42028D01*
X20399Y42163D01*
X20419Y42328D01*
X20446Y42748D01*
X20452Y43133D01*
X20399Y43968D01*
X20375Y44103D01*
X20346Y44208D01*
X20313Y44283D01*
X20275Y44328D01*
X20233Y44343D01*
X22177D01*
Y44794D01*
X21735Y44785D01*
Y45846D01*
X21756Y45840D01*
X21806Y45835D01*
X21994Y45826D01*
X22177Y45825D01*
Y46288D01*
X22187Y46198D01*
D02*
G37*
G36*
X22078Y39833D02*
X21993Y39803D01*
X21918Y39753D01*
X21853Y39683D01*
X21798Y39593D01*
X21753Y39483D01*
X21718Y39353D01*
X21693Y39203D01*
X21678Y39033D01*
X21673Y38843D01*
X20673D01*
X20669Y39033D01*
X20656Y39203D01*
X20634Y39353D01*
X20603Y39483D01*
X20563Y39593D01*
X20515Y39683D01*
X20457Y39753D01*
X20391Y39803D01*
X20316Y39833D01*
X20233Y39843D01*
X22173D01*
X22078Y39833D01*
D02*
G37*
G36*
X11574Y41058D02*
X10779Y40148D01*
X10584Y39879D01*
X10425Y39628D01*
X10301Y39394D01*
X10213Y39177D01*
X10160Y38977D01*
X10142Y38795D01*
X9543D01*
X9525Y38977D01*
X9472Y39177D01*
X9384Y39394D01*
X9260Y39628D01*
X9101Y39879D01*
X8906Y40148D01*
X8412Y40737D01*
X8111Y41058D01*
X7776Y41395D01*
X11909D01*
X11574Y41058D01*
D02*
G37*
G36*
X19566Y34989D02*
X19553Y34955D01*
X19542Y34912D01*
X19532Y34859D01*
X19517Y34724D01*
X19508Y34550D01*
X19505Y34337D01*
X18905D01*
X18904Y34449D01*
X18877Y34859D01*
X18868Y34912D01*
X18856Y34955D01*
X18843Y34989D01*
X18829Y35013D01*
X19580D01*
X19566Y34989D01*
D02*
G37*
G36*
X26390Y30918D02*
X26384Y30970D01*
X26366Y31018D01*
X26336Y31060D01*
X26294Y31096D01*
X26240Y31126D01*
X26174Y31152D01*
X26096Y31171D01*
X26006Y31185D01*
X25904Y31193D01*
X25790Y31196D01*
Y31796D01*
X25904Y31799D01*
X26006Y31807D01*
X26096Y31821D01*
X26174Y31841D01*
X26240Y31866D01*
X26294Y31896D01*
X26336Y31933D01*
X26366Y31974D01*
X26384Y32022D01*
X26390Y32075D01*
Y30918D01*
D02*
G37*
G36*
X19566Y31052D02*
X19553Y31018D01*
X19542Y30975D01*
X19532Y30922D01*
X19517Y30787D01*
X19508Y30613D01*
X19505Y30400D01*
X18905D01*
X18904Y30512D01*
X18877Y30922D01*
X18868Y30975D01*
X18856Y31018D01*
X18843Y31052D01*
X18829Y31076D01*
X19580D01*
X19566Y31052D01*
D02*
G37*
G36*
X17598D02*
X17585Y31018D01*
X17573Y30975D01*
X17563Y30922D01*
X17548Y30787D01*
X17539Y30613D01*
X17536Y30400D01*
X16936D01*
X16936Y30512D01*
X16909Y30922D01*
X16899Y30975D01*
X16888Y31018D01*
X16875Y31052D01*
X16860Y31076D01*
X17612D01*
X17598Y31052D01*
D02*
G37*
G36*
X21499Y31739D02*
X21533Y31727D01*
X21576Y31715D01*
X21629Y31705D01*
X21764Y31690D01*
X21938Y31681D01*
X22151Y31678D01*
Y31078D01*
X22039Y31077D01*
X21629Y31051D01*
X21576Y31041D01*
X21533Y31029D01*
X21499Y31016D01*
X21475Y31002D01*
Y31754D01*
X21499Y31739D01*
D02*
G37*
G36*
X19505Y34213D02*
X19532Y33802D01*
X19542Y33749D01*
X19553Y33706D01*
X19566Y33672D01*
X19580Y33649D01*
X18829D01*
X18843Y33672D01*
X18856Y33706D01*
X18868Y33749D01*
X18877Y33802D01*
X18893Y33937D01*
X18902Y34111D01*
X18905Y34324D01*
X19505D01*
X19505Y34213D01*
D02*
G37*
G36*
X21499Y33708D02*
X21533Y33695D01*
X21576Y33684D01*
X21629Y33674D01*
X21764Y33659D01*
X21938Y33650D01*
X22151Y33646D01*
Y33046D01*
X22039Y33046D01*
X21629Y33019D01*
X21576Y33009D01*
X21533Y32998D01*
X21499Y32985D01*
X21475Y32971D01*
Y33722D01*
X21499Y33708D01*
D02*
G37*
G36*
X16934Y32971D02*
X16910Y32985D01*
X16877Y32998D01*
X16834Y33009D01*
X16781Y33019D01*
X16646Y33034D01*
X16472Y33043D01*
X16259Y33046D01*
Y33646D01*
X16370Y33647D01*
X16781Y33674D01*
X16834Y33684D01*
X16877Y33695D01*
X16910Y33708D01*
X16934Y33722D01*
Y32971D01*
D02*
G37*
D10*
X22047Y18504D02*
D03*
Y24803D02*
D03*
D11*
X16736Y25315D02*
D03*
Y21378D02*
D03*
D12*
X17268Y45315D02*
D03*
X21205D02*
D03*
X17268Y40815D02*
D03*
X21205D02*
D03*
D13*
X17236Y31378D02*
D03*
Y33346D02*
D03*
Y35315D02*
D03*
X19205Y31378D02*
D03*
Y33346D02*
D03*
Y35315D02*
D03*
X21173Y31378D02*
D03*
Y33346D02*
D03*
Y35315D02*
D03*
D14*
X28346Y27559D02*
D03*
Y31496D02*
D03*
Y35433D02*
D03*
Y39370D02*
D03*
D15*
X35827Y16634D02*
D03*
Y50295D02*
D03*
D16*
X19205Y35912D02*
Y37488D01*
X18782Y36334D02*
X19205Y35912D01*
Y35315D02*
Y35912D01*
X22047Y24803D02*
Y26772D01*
X19205Y29614D02*
X22047Y26772D01*
X19205Y29614D02*
Y31378D01*
X9843Y38287D02*
Y43504D01*
Y38287D02*
X12815Y35315D01*
X17236D01*
X9843Y23425D02*
Y30807D01*
X12382Y33346D01*
X17236D01*
X16736Y25315D02*
Y28646D01*
X17236Y29146D01*
Y31378D01*
X19205Y33346D02*
Y35315D01*
X21173Y35315D02*
Y36307D01*
X24606Y31496D02*
X28346D01*
X24488Y31378D02*
X24606Y31496D01*
X21173Y31378D02*
X24488D01*
X24606Y35433D02*
X28346D01*
X22520Y33346D02*
X24606Y35433D01*
X21173Y33346D02*
X22520D01*
D17*
X21173Y40784D02*
X21205Y40815D01*
X21173Y36307D02*
Y40784D01*
X21205Y45315D02*
X23582D01*
X24606Y44291D01*
Y40354D02*
Y44291D01*
Y40354D02*
X25591Y39370D01*
X28346D01*
D18*
X21205Y40815D02*
Y45315D01*
D19*
X9843Y23425D02*
D03*
Y43504D02*
D03*
D20*
Y9843D02*
D03*
Y57087D02*
D03*
D21*
X35827Y16634D02*
D03*
Y50295D02*
D03*
X35433Y27559D02*
D03*
Y39370D02*
D03*
X13386Y38976D02*
D03*
Y29528D02*
D03*
X41339Y51181D02*
D03*
Y39370D02*
D03*
Y27559D02*
D03*
Y15748D02*
D03*
X27559D02*
D03*
Y51181D02*
D03*
X15748D02*
D03*
X3937D02*
D03*
Y39370D02*
D03*
Y27559D02*
D03*
X15748Y15748D02*
D03*
X3937D02*
D03*
X15748Y3937D02*
D03*
X3937D02*
D03*
X15748Y62992D02*
D03*
X3937D02*
D03*
M02*
